<svg width="651" height="410" viewBox="0 0 651 410" fill="none" xmlns="http://www.w3.org/2000/svg">
<g clip-path="url(#clip0_2579_5203)">
<path d="M262.929 34.6123L249.266 24.9354L206.06 0L32.1403 14.7761L0.143542 33.3603L0 82.5008L4.55418 85.1352V85.1873L9.10836 87.7826V87.8348L13.6625 90.417V90.4692L18.295 93.0514L35.6244 103.054L35.4939 149.743L77.3036 173.87L90.9662 179.126L129.657 157.32L140.984 163.854L154.646 169.397L185.495 152.012L185.56 125.812L262.798 82.2921L262.929 34.6123Z" fill="#D6D8E5"/>
<path d="M420.199 238.686L388.202 257.27L388.059 306.411L392.613 309.045V309.097L397.167 311.693V311.758L401.721 314.327V314.379L406.354 316.975L423.683 326.964L423.552 373.653L465.375 397.78L479.038 403.036L517.729 381.23L529.043 387.764L542.705 393.307L573.553 375.922L573.632 349.722L650.857 306.202L651.001 258.522L637.338 248.846L594.119 223.91L420.199 238.686Z" fill="#D6D8E5"/>
<path d="M395.615 247.033L396.281 246.642L400.326 244.216L401.879 243.238C402.871 242.625 403.849 242.012 404.802 241.399L406.485 240.304C407.36 239.743 408.208 239.169 409.095 238.608L410.752 237.474C411.561 236.926 412.357 236.365 413.14 235.817L414.693 234.709L416.977 233.026L418.386 231.97L420.709 230.144L421.818 229.257C422.927 228.357 423.997 227.471 425.015 226.571L426.32 225.488C426.803 225.058 427.247 224.628 427.703 224.184L428.343 223.584C429.23 222.75 430.065 221.915 430.861 221.08C431.044 220.898 431.214 220.702 431.383 220.52C431.997 219.854 432.597 219.215 433.158 218.537C433.38 218.289 433.602 218.029 433.81 217.768L434.358 217.129C434.815 216.568 435.246 216.02 435.663 215.459L435.846 215.212C436.485 214.351 437.086 213.49 437.634 212.603C437.947 212.108 438.26 211.612 438.547 211.117C438.678 210.895 438.782 210.66 438.913 210.438C439.043 210.217 439.317 209.695 439.5 209.317C439.683 208.939 439.996 208.313 440.231 207.817C440.465 207.321 440.557 207.087 440.7 206.722C440.844 206.356 440.857 206.369 440.922 206.2C441.157 205.613 441.353 205.039 441.549 204.452C441.801 203.644 442.01 202.835 442.175 202.027C442.175 201.935 442.24 201.831 442.266 201.727C442.292 201.622 442.266 201.427 442.332 201.27C442.41 200.892 442.462 200.514 442.514 200.149C442.566 199.783 442.592 199.588 442.619 199.301C442.645 199.014 442.684 198.545 442.71 198.166C442.736 197.788 442.71 197.814 442.71 197.632C442.71 197.449 442.71 197.227 442.71 197.019L442.84 149.339C442.84 149.717 442.84 150.095 442.84 150.486V150.878C443.169 145.443 441.672 140.054 438.586 135.567C434.15 128.733 425.72 121.834 413.297 114.87C411.366 113.801 409.382 112.796 407.49 111.818C405.976 110.984 404.463 110.175 402.936 109.406C401.409 108.636 399.908 107.749 398.382 106.967C387.52 100.778 375.807 96.2167 363.619 93.4297C351.202 90.6877 338.425 89.9567 325.776 91.2648C312.268 92.6702 298.997 95.8041 286.289 100.59C271.598 106.223 257.407 113.081 243.866 121.091C229.129 129.646 217.45 137.814 208.829 145.596C200.207 153.377 194.77 160.959 192.517 168.34C191.74 170.874 191.37 173.515 191.421 176.165C191.421 175.996 191.421 175.813 191.421 175.631L191.277 224.784C191.348 229.989 192.965 235.055 195.923 239.338C200.534 246.398 208.903 253.406 221.03 260.361C222.569 261.248 224.109 262.109 225.649 262.97L227.163 263.739C228.194 264.274 229.238 264.809 230.281 265.317C230.882 265.617 231.495 265.878 232.108 266.165C233.035 266.608 233.974 267.052 234.901 267.469C235.566 267.769 236.206 268.03 236.884 268.304C237.772 268.669 238.646 269.06 239.494 269.399L239.677 269.477C239.99 269.608 240.303 269.699 240.616 269.83C241.921 270.338 243.226 270.834 244.61 271.29L246.384 271.877L249.764 272.934L250.704 273.22L252.256 273.638L253.496 273.964C254.866 274.316 256.249 274.655 257.62 274.955L258.768 275.19C259.747 275.398 260.712 275.581 261.691 275.75L262.304 275.868C263.548 276.085 264.788 276.281 266.023 276.455H266.245L266.858 276.559C268.094 276.785 269.334 276.981 270.578 277.146H270.799L271.413 277.263L275.132 277.85C275.206 277.844 275.28 277.844 275.354 277.85L275.967 277.954C277.272 278.176 278.472 278.372 279.738 278.541H280.182L281.213 278.672C282.283 278.802 283.353 278.92 284.436 279.024L285.662 279.141L286.537 279.219C287.528 279.311 288.533 279.363 289.525 279.428H289.825C290.973 279.493 292.122 279.533 293.27 279.559H298.372H299.677H300.395C301.256 279.559 302.118 279.48 303.005 279.428H304.153C305.563 279.337 306.972 279.233 308.381 279.089H308.707C310.369 278.924 312.039 278.728 313.718 278.502L315.402 278.241C316.524 278.072 317.646 277.915 318.768 277.72L319.186 277.655L321.039 277.302L323.649 276.794L325.972 276.272C326.846 276.077 327.733 275.894 328.581 275.672L330.93 275.085L333.54 274.394L335.928 273.716L338.538 272.92L339.269 272.712L341.618 271.942L343.131 271.46C344.697 270.925 346.276 270.39 347.842 269.804C362.582 264.357 376.849 257.71 390.5 249.928C392.24 248.937 393.945 247.955 395.615 246.981V247.033ZM442.71 151.556C442.71 151.83 442.645 152.117 442.606 152.391C442.566 152.664 442.488 153.147 442.423 153.525C442.423 153.525 442.423 153.603 442.423 153.643C442.565 152.949 442.669 152.248 442.736 151.543L442.71 151.556ZM442.292 154.282C442.122 155.101 441.909 155.911 441.653 156.707C441.909 155.911 442.122 155.101 442.292 154.282ZM194.018 186.585C193.874 186.299 193.77 186.012 193.652 185.725C193.861 186.22 194.083 186.716 194.344 187.198C194.226 186.99 194.109 186.794 194.018 186.585Z" fill="#D6D8E5"/>
<path d="M165.215 25.3396L165.071 74.4801L63.0391 83.1658L63.1826 34.0253L165.215 25.3396Z" fill="#074D9A"/>
<path d="M76.0248 77.1408L75.8813 126.281L0 82.5009L0.143542 33.3604L76.0248 77.1408Z" fill="#3479C5"/>
<path d="M249.266 24.9355L249.136 74.0761L148.539 132.502L148.683 83.3486L249.266 24.9355Z" fill="#357ECE"/>
<path d="M141.115 114.7L140.984 163.854L117.691 150.408L117.835 101.268L141.115 114.7Z" fill="#3479C5"/>
<path d="M171.963 96.7944L171.833 145.935L140.984 163.854L141.115 114.7L171.963 96.7944Z" fill="#357ECE"/>
<path d="M77.4455 124.729L77.3019 173.87L35.4922 149.743L35.6227 100.603L77.4455 124.729Z" fill="#3479C5"/>
<path d="M117.836 101.268L117.692 150.408L77.3047 173.87L77.4482 124.729L117.836 101.268Z" fill="#357ECE"/>
<path d="M148.684 83.3615L171.964 96.7943L141.128 114.713L117.836 101.255L77.4482 124.729L35.6906 100.602L76.1433 77.1277L0.144531 33.3603L32.1412 14.7761L206.022 0L249.241 24.9354L148.684 83.3615ZM106.926 59.2347L165.269 25.3267L63.2376 34.0123L106.848 59.2347" fill="#0D64C5"/>
<path d="M367.896 126.033C367.283 125.681 366.656 125.355 366.03 125.042L365.456 124.781C364.986 124.56 364.516 124.351 364.033 124.155L363.681 123.999L363.472 123.934C362.624 123.608 361.75 123.308 360.862 123.047L360.667 122.982L360.301 122.89C359.74 122.734 359.166 122.59 358.579 122.473L358.213 122.382H358.031C357.37 122.251 356.691 122.134 355.995 122.03C355.317 121.925 354.69 121.86 353.92 121.795H353.777H353.268L351.741 121.704H348.518C347.604 121.704 346.678 121.769 345.738 121.899H345.556L344.799 121.991L343.651 122.121L342.62 122.277L341.445 122.46L341.119 122.525H340.754C339.631 122.734 338.509 122.969 337.348 123.256C336.526 123.451 335.664 123.673 334.738 123.921L333.89 124.182L332.037 124.729L331.645 124.86L331.215 125.003C329.91 125.42 328.605 125.864 327.235 126.372L326.974 126.477C325.669 126.972 324.246 127.52 322.824 128.094L322.171 128.355C320.736 128.955 319.248 129.659 317.735 130.259L316.834 130.663C315.295 131.354 313.729 132.085 312.111 132.854L311.445 133.18C309.853 133.945 308.222 134.754 306.552 135.606L306.043 135.854C304.32 136.741 302.532 137.68 300.719 138.645L299.675 139.205C297.883 140.153 296.051 141.153 294.181 142.205L293.189 142.766C291.206 143.874 289.209 145.009 287.147 146.209L283.494 148.361L282.358 149.039L280.362 150.239L280.075 150.408C278.704 151.243 277.36 152.064 276.069 152.873L275.325 153.342L272.284 155.273L271.11 156.042L268.657 157.685L267.573 158.416C266.608 159.055 265.694 159.72 264.794 160.333L264.363 160.633C263.346 161.35 262.38 162.054 261.44 162.745L260.657 163.345L258.726 164.819L257.878 165.497L256.142 166.919L255.49 167.466C254.759 168.092 254.054 168.771 253.389 169.318C252.893 169.788 252.423 170.231 251.967 170.688L251.614 171.04L250.636 172.057L250.205 172.54L249.448 173.4L249.057 173.883L248.796 174.196C248.569 174.474 248.361 174.748 248.169 175.017C247.921 175.357 247.7 175.683 247.478 176.022L247.256 176.387L246.89 177C246.708 177.339 246.525 177.678 246.368 178.017L246.238 178.304C246.134 178.552 246.029 178.786 245.938 179.021V179.126C245.743 179.662 245.586 180.211 245.468 180.769C245.374 181.237 245.317 181.713 245.298 182.19C245.298 182.19 245.298 182.282 245.298 182.321C245.292 182.399 245.292 182.477 245.298 182.555L245.168 231.696C245.168 231.579 245.168 231.448 245.168 231.331C245.193 230.854 245.25 230.379 245.338 229.909V229.909C245.452 229.345 245.613 228.791 245.82 228.253C245.816 228.197 245.816 228.14 245.82 228.083L246.121 227.379C246.121 227.288 246.199 227.184 246.251 227.079C246.408 226.74 246.59 226.401 246.786 226.062C246.982 225.723 247.047 225.606 247.191 225.384C247.334 225.162 247.308 225.175 247.386 225.071C247.595 224.745 247.83 224.406 248.065 224.067C248.3 223.728 248.639 223.31 248.952 222.932C249.083 222.763 249.213 222.606 249.357 222.45C249.5 222.293 249.84 221.876 250.101 221.589L250.531 221.106L251.523 220.089L251.862 219.737C252.332 219.267 252.828 218.798 253.35 218.328C254.002 217.715 254.655 217.102 255.451 216.463L256.103 215.916C256.651 215.446 257.225 214.977 257.839 214.494L258.674 213.829C259.3 213.334 259.979 212.838 260.605 212.342L261.388 211.755C262.328 211.051 263.293 210.347 264.311 209.63L264.742 209.499C265.629 208.873 266.543 208.195 267.495 207.595L268.578 206.865L271.032 205.235L272.206 204.478L275.259 202.535L275.99 202.066C277.295 201.257 278.6 200.435 280.009 199.601L282.241 198.297L283.428 197.579L287.082 195.441C289.126 194.258 291.136 193.115 293.111 192.011L294.103 191.437C295.982 190.393 297.809 189.389 299.609 188.437L300.653 187.876C302.467 186.911 304.242 185.972 305.977 185.086L306.499 184.72C308.17 183.851 309.801 183.042 311.393 182.295L312.058 181.969C313.676 181.203 315.255 180.473 316.795 179.778L317.683 179.373C319.209 178.708 320.684 178.069 322.119 177.469L322.772 177.208C324.194 176.635 325.59 176.087 326.921 175.591L327.195 175.487C328.566 174.991 329.884 174.535 331.175 174.183L331.984 173.922C332.611 173.713 333.224 173.531 333.837 173.361L334.699 173.1C335.573 172.866 336.434 172.631 337.309 172.435C338.457 172.148 339.592 171.927 340.701 171.718L341.406 171.588L342.567 171.392L343.598 171.235L344.747 171.105L345.686 171.001C346.639 170.909 347.565 170.844 348.479 170.805H350.867H351.624C352.146 170.805 352.654 170.831 353.15 170.883H353.803C354.507 170.883 355.199 171.014 355.891 171.118C356.569 171.222 357.196 171.34 357.913 171.47L358.474 171.601C359.049 171.731 359.623 171.861 360.184 172.018L360.758 172.174C361.645 172.435 362.507 172.735 363.368 173.061L363.929 173.283C364.399 173.474 364.869 173.683 365.338 173.909C365.534 174 365.73 174.078 365.912 174.183C366.556 174.478 367.183 174.804 367.792 175.161C373.011 178.178 375.621 181.612 375.621 185.464L375.752 136.323C375.752 132.463 373.142 129.029 367.922 126.02" fill="#074D9A"/>
<path d="M429.164 144.357C429.164 144.748 429.138 145.139 429.086 145.531C429.086 145.817 429.02 146.104 428.981 146.391C428.942 146.678 428.864 147.174 428.798 147.565L428.642 148.335C428.472 149.18 428.258 150.015 428.002 150.838C427.768 151.608 427.467 152.39 427.167 153.173C427.011 153.551 426.854 153.916 426.684 154.294C426.515 154.673 426.215 155.338 425.967 155.846L425.366 157.007C424.452 158.699 423.432 160.333 422.313 161.898L422.13 162.159C421.556 162.941 420.93 163.737 420.29 164.532L419.638 165.328C419.064 166.006 418.476 166.632 417.863 167.362L417.341 167.949C416.532 168.81 415.697 169.67 414.823 170.557L414.183 171.17C413.335 171.992 412.474 172.8 411.573 173.622C410.673 174.444 409.473 175.461 408.376 176.387L407.267 177.287C406.497 177.913 405.727 178.591 404.931 179.178L403.535 180.26L401.251 181.995L399.686 183.142L397.298 184.864L395.653 186.025L393.044 187.772L391.373 188.894L388.437 190.798C387.928 191.137 387.419 191.463 386.884 191.789C385.579 192.624 384.209 193.471 382.839 194.306L382.187 194.71C380.499 195.727 378.759 196.753 376.967 197.788C363.395 205.786 349.183 212.647 334.479 218.302C332.9 218.889 331.334 219.45 329.768 219.998L328.254 220.506L325.174 221.511L322.499 222.319L320.124 223.023L317.515 223.741C316.719 223.936 315.936 224.158 315.153 224.341C314.37 224.523 313.391 224.771 312.543 224.967C311.695 225.162 310.99 225.332 310.22 225.488C309.45 225.645 308.458 225.84 307.61 226.023L305.196 226.453L301.803 227.001L300.133 227.249C298.463 227.484 296.792 227.692 295.122 227.862C293.452 228.031 292.095 228.136 290.581 228.24H289.42C288.323 228.305 287.227 228.357 286.131 228.384H284.826C283.782 228.384 282.738 228.384 281.694 228.384H280.39C279.006 228.384 277.623 228.383 276.24 228.24H275.94C274.635 228.162 273.33 228.057 272.025 227.953L270.785 227.823C269.715 227.718 268.645 227.601 267.575 227.458L266.544 227.327C265.135 227.132 263.726 226.923 262.316 226.675L261.729 226.558C260.359 226.31 259.002 226.049 257.645 225.762C256.288 225.475 254.891 225.123 253.508 224.771L252.282 224.445L249.789 223.728C248.667 223.402 247.532 223.049 246.409 222.684L244.635 222.097C243.33 221.628 241.96 221.145 240.629 220.624C240.263 220.48 239.885 220.363 239.506 220.206C238.632 219.867 237.758 219.476 236.896 219.111L234.913 218.276C233.986 217.872 233.06 217.429 232.133 216.972L230.281 216.111C229.25 215.603 228.219 215.068 227.175 214.533L225.661 213.751C224.121 212.942 222.581 212.082 221.029 211.143C208.91 204.135 200.541 197.106 195.922 190.054C195.162 188.907 194.482 187.708 193.886 186.468C192.183 183.057 191.29 179.299 191.276 175.487L191.133 224.641C191.203 229.845 192.82 234.911 195.778 239.195C200.485 246.35 208.902 253.406 221.029 260.361C222.568 261.248 224.108 262.109 225.648 262.97L227.162 263.739C228.193 264.274 229.237 264.809 230.281 265.317C230.881 265.617 231.494 265.878 232.107 266.165C233.034 266.608 233.973 267.052 234.9 267.469L236.883 268.304C237.771 268.669 238.645 269.06 239.493 269.399L239.676 269.477C239.989 269.608 240.302 269.699 240.615 269.816C241.92 270.338 243.225 270.834 244.609 271.29L246.383 271.877C247.519 272.242 248.641 272.594 249.763 272.92L250.703 273.22L252.255 273.638L253.495 273.964C254.865 274.316 256.248 274.655 257.619 274.955L258.767 275.19C259.746 275.398 260.711 275.581 261.69 275.75L262.303 275.868C263.608 276.089 264.809 276.285 266.075 276.468H266.518L267.549 276.598C268.619 276.742 269.689 276.859 270.772 276.976L271.999 277.094L272.873 277.172C273.865 277.263 274.87 277.315 275.861 277.381H276.162C277.31 277.446 278.458 277.498 279.607 277.524H281.59C282.621 277.524 283.665 277.524 284.709 277.524H286.014H286.731C287.593 277.524 288.454 277.446 289.341 277.394H290.49C291.899 277.302 293.308 277.185 294.718 277.055H295.044C296.701 276.885 298.371 276.676 300.042 276.455L301.738 276.181C302.86 276.011 303.969 275.842 305.105 275.646L305.522 275.581L307.375 275.216C308.263 275.033 309.137 274.877 309.985 274.681C310.833 274.485 311.525 274.342 312.308 274.159L314.918 273.546L317.267 272.933L319.877 272.216C320.673 271.994 321.469 271.747 322.251 271.512C323.034 271.277 324.039 270.99 324.861 270.703L325.592 270.482L327.941 269.699L329.455 269.19C331.021 268.643 332.586 268.082 334.165 267.495C348.874 261.84 363.09 254.979 376.667 246.981C378.407 245.963 380.112 244.951 381.782 243.942H381.847L382.513 243.538L386.558 241.034L388.111 240.03L391.034 238.139L392.717 237.004C393.592 236.417 394.44 235.843 395.327 235.256L396.997 234.096C397.807 233.522 398.603 232.948 399.372 232.374C399.907 231.996 400.429 231.618 400.938 231.227C401.721 230.653 402.465 230.079 403.222 229.492L404.631 228.41C405.427 227.784 406.184 227.105 406.954 226.532L408.063 225.619C409.172 224.693 410.242 223.767 411.26 222.854L412.5 221.732C412.983 221.289 413.426 220.845 413.883 220.428L414.523 219.815C415.41 218.954 416.245 218.094 417.041 217.207L417.563 216.62C418.176 215.942 418.777 215.316 419.338 214.586L419.99 213.79C420.173 213.568 420.369 213.347 420.538 213.125C420.995 212.551 421.413 211.99 421.843 211.416L422.026 211.156C422.665 210.269 423.266 209.382 423.814 208.547C424.127 208.039 424.44 207.53 424.727 207.021C424.858 206.774 424.962 206.552 425.092 206.317C425.223 206.082 425.497 205.548 425.68 205.17C425.862 204.791 426.176 204.126 426.397 203.605C426.619 203.083 426.737 202.861 426.88 202.483C427.024 202.105 427.037 202.131 427.102 201.948C427.337 201.348 427.533 200.748 427.715 200.149C427.976 199.314 428.185 198.479 428.355 197.658C428.387 197.555 428.413 197.45 428.433 197.345C428.433 197.188 428.433 197.032 428.511 196.875C428.59 196.484 428.642 196.093 428.694 195.701C428.746 195.31 428.772 195.128 428.798 194.841C428.825 194.554 428.864 194.058 428.89 193.667C428.89 193.484 428.89 193.302 428.89 193.119C428.89 192.937 428.89 192.702 428.89 192.48L429.02 143.34C429.02 143.731 429.02 144.135 429.02 144.526" fill="#357ECE"/>
<path d="M411.521 173.596C402.821 181.369 391.303 189.424 376.966 197.762C363.394 205.76 349.183 212.621 334.478 218.276C321.837 223.148 308.616 226.362 295.148 227.836C282.67 229.138 270.063 228.452 257.801 225.801C244.905 222.886 232.543 217.98 221.159 211.26C209.04 204.252 200.671 197.223 196.052 190.172C191.432 183.121 190.258 175.843 192.529 168.34C194.782 160.95 200.219 153.369 208.84 145.596C217.461 137.823 229.136 129.655 243.864 121.091C257.404 113.063 271.595 106.187 286.287 100.537C298.996 95.7518 312.267 92.618 325.774 91.2126C338.423 89.9045 351.2 90.6354 363.617 93.3775C376.247 96.2906 388.36 101.106 399.542 107.658C411.973 114.831 420.407 121.938 424.844 128.981C426.982 132.147 428.373 135.757 428.913 139.539C429.453 143.32 429.128 147.175 427.963 150.812C425.692 158.203 420.212 165.788 411.521 173.57V173.596ZM283.638 195.493C295.887 192.476 312.525 184.864 333.552 172.657C354.735 160.354 367.845 150.708 372.882 143.718C377.919 136.728 376.257 130.833 367.897 126.033C359.65 121.269 349.467 120.347 337.349 123.269C325.231 126.19 308.515 133.841 287.201 146.222C266.322 158.342 253.308 167.958 248.157 175.07C243.007 182.182 244.56 188.116 252.816 192.871C261.089 197.645 271.355 198.514 283.612 195.48" fill="#0D64C5"/>
<path d="M553.276 249.25L553.132 298.391L451.113 307.089L451.257 257.949L553.276 249.25Z" fill="#074D9A"/>
<path d="M464.082 301.051L463.938 350.204L388.07 306.424L388.214 257.283L464.082 301.051Z" fill="#3479C5"/>
<path d="M637.338 248.846L637.194 297.999L536.598 356.412L536.741 307.272L637.338 248.846Z" fill="#357ECE"/>
<path d="M529.185 338.624L529.042 387.764L505.762 374.331L505.892 325.191L529.185 338.624Z" fill="#3479C5"/>
<path d="M560.035 320.705L559.891 369.845L529.043 387.764L529.186 338.624L560.035 320.705Z" fill="#357ECE"/>
<path d="M465.504 348.64L465.374 397.78L423.551 373.653L423.694 324.513L465.504 348.64Z" fill="#3479C5"/>
<path d="M505.894 325.191L505.764 374.331L465.363 397.78L465.507 348.64L505.894 325.191Z" fill="#357ECE"/>
<path d="M536.754 307.311L560.034 320.757L529.186 338.611L505.906 325.178L465.518 348.653L423.696 324.526L464.083 301.051L388.215 257.27L420.212 238.686L594.132 223.91L637.338 248.846L536.754 307.311ZM494.931 283.184L553.288 249.276L451.269 257.962L494.931 283.158" fill="#0D64C5"/>
<path d="M479.114 296.708C481.882 301.63 485.239 306.198 489.11 310.31C490.193 311.614 498.505 308.393 496.757 307.493C495.008 306.594 489.579 299.016 486.852 293.969C484.566 287.924 482.623 281.754 481.032 275.489C479.323 269.308 477.848 260.218 476.595 255.927C475.343 251.636 472.785 250.045 470.227 249.406C467.239 248.715 465.308 249.537 465.843 253.149C466.808 259.514 471.767 284.175 479.114 296.656" fill="#FFCEA9"/>
<path d="M474.353 393.385C476.963 395.485 480.721 393.568 480.878 393.763C483.908 396.567 487.083 399.209 490.391 401.679C491.996 402.984 494.501 404.627 494.058 407.066C493.236 411.395 486.228 410.065 483.618 408.735C481.009 407.405 478.855 405.214 476.376 403.662C474.601 402.566 472.866 402.005 472.579 399.749C472.422 398.445 473.805 393.32 474.275 393.372" fill="#2B2A30"/>
<path d="M472.695 398.837C473.034 400.975 474.757 401.562 476.518 402.658C479.037 404.223 481.255 406.479 483.878 407.809C486.501 409.139 492.347 410.261 494.056 407.157C493.13 411.343 486.227 410.026 483.695 408.709C481.164 407.392 478.932 405.188 476.453 403.636C474.678 402.54 472.943 401.966 472.669 399.723C472.631 399.425 472.631 399.122 472.669 398.823" fill="#BF4B4B"/>
<path d="M500.489 378.309C503.099 380.409 507.588 378.113 507.77 378.309C510.451 381.028 513.287 383.588 516.265 385.978C517.884 387.282 520.389 388.938 519.932 391.364C519.123 395.707 512.168 394.363 509.493 393.033C506.818 391.703 504.717 389.512 502.238 387.973C500.463 386.864 498.727 386.304 498.453 384.06C498.284 382.756 499.98 378.257 500.437 378.309" fill="#2B2A30"/>
<path d="M498.586 383.473C498.925 385.612 500.648 386.199 502.396 387.295C504.928 388.86 507.146 391.116 509.769 392.446C512.392 393.776 518.238 394.885 519.948 391.794C519.021 395.98 512.183 394.663 509.587 393.346C506.99 392.029 504.824 389.812 502.344 388.273C500.569 387.177 498.821 386.603 498.547 384.36C498.51 384.061 498.51 383.759 498.547 383.46" fill="#BF4B4B"/>
<path d="M439.878 310.78C436.994 328.621 444.954 335.272 455.263 339.067C462.649 341.793 473.258 345.992 473.258 345.992C473.258 345.992 473.115 349.904 473.036 358.694C472.958 366.428 473.976 394.676 473.976 394.676C473.976 394.676 478.256 396.893 481.871 394.585C481.871 394.585 486.033 372.949 486.908 363.194C488.108 349.957 490.144 341.297 489.517 338.415C488.917 335.911 474.446 328.79 469.852 324.982L500.179 335.141C499.575 338.428 499.278 341.764 499.291 345.105C499.578 355.617 500.153 378.348 500.153 378.348C500.153 378.348 504.315 381.348 507.865 378.348C507.865 378.348 515.498 333.342 514.572 327.382C513.685 321.735 486.96 310.18 482.262 306.202C481.427 305.542 480.461 305.067 479.429 304.808C478.396 304.549 477.32 304.514 476.273 304.702L439.878 310.78Z" fill="#E26D6D"/>
<path d="M512.6 318.213L492.217 306.476C492.039 306.373 491.836 306.319 491.63 306.319C491.424 306.319 491.221 306.373 491.043 306.476L455.262 327.082L476.219 339.171L512.6 318.213Z" fill="#F4F4F4"/>
<path d="M475.318 334.855L473.765 335.741C473.634 335.82 473.647 335.95 473.765 336.028L475.253 336.889C475.329 336.928 475.414 336.948 475.5 336.948C475.587 336.948 475.672 336.928 475.748 336.889L477.301 336.002C477.432 335.924 477.406 335.794 477.301 335.715L475.827 334.855C475.75 334.816 475.665 334.795 475.579 334.795C475.493 334.795 475.408 334.816 475.331 334.855" fill="#3A2C6D"/>
<path d="M477.512 333.576L475.959 334.476C475.829 334.555 475.855 334.685 475.959 334.763L477.447 335.624C477.522 335.663 477.604 335.683 477.688 335.683C477.773 335.683 477.855 335.663 477.93 335.624L479.483 334.724C479.613 334.724 479.6 334.528 479.483 334.45L477.995 333.589C477.918 333.551 477.833 333.532 477.747 333.532C477.661 333.532 477.576 333.551 477.499 333.589" fill="#3A2C6D"/>
<path d="M479.744 332.298L478.191 333.198C478.06 333.198 478.073 333.394 478.191 333.485L479.678 334.333C479.755 334.371 479.84 334.391 479.926 334.391C480.012 334.391 480.097 334.371 480.174 334.333L481.727 333.433C481.858 333.355 481.831 333.237 481.727 333.146L480.252 332.298C480.176 332.257 480.091 332.236 480.005 332.236C479.918 332.236 479.833 332.257 479.757 332.298" fill="#3A2C6D"/>
<path d="M481.907 331.046L480.354 331.946C480.223 332.012 480.25 332.142 480.354 332.22L481.842 333.081C481.917 333.116 482 333.134 482.083 333.134C482.166 333.134 482.249 333.116 482.324 333.081L483.877 332.181C484.008 332.103 483.995 331.972 483.877 331.894L482.39 331.033C482.313 330.994 482.228 330.974 482.142 330.974C482.056 330.974 481.971 330.994 481.894 331.033" fill="#3A2C6D"/>
<path d="M484.115 329.781L482.562 330.668C482.431 330.746 482.444 330.877 482.562 330.955L484.049 331.816C484.126 331.855 484.211 331.875 484.297 331.875C484.383 331.875 484.468 331.855 484.545 331.816L486.098 330.929C486.229 330.851 486.203 330.72 486.098 330.642L484.624 329.781C484.547 329.742 484.462 329.722 484.376 329.722C484.289 329.722 484.205 329.742 484.128 329.781" fill="#3A2C6D"/>
<path d="M486.305 328.503L484.752 329.403C484.622 329.481 484.648 329.599 484.752 329.69L486.24 330.538C486.314 330.579 486.397 330.6 486.481 330.6C486.566 330.6 486.649 330.579 486.723 330.538L488.276 329.638C488.406 329.573 488.393 329.442 488.276 329.351L486.788 328.503C486.711 328.465 486.626 328.446 486.54 328.446C486.454 328.446 486.369 328.465 486.292 328.503" fill="#3A2C6D"/>
<path d="M488.509 327.238L486.956 328.138C486.826 328.138 486.839 328.334 486.956 328.425L488.444 329.273C488.521 329.311 488.606 329.331 488.692 329.331C488.778 329.331 488.863 329.311 488.94 329.273L490.493 328.373C490.623 328.295 490.597 328.177 490.493 328.086L489.018 327.238C488.942 327.197 488.857 327.176 488.77 327.176C488.684 327.176 488.598 327.197 488.522 327.238" fill="#3A2C6D"/>
<path d="M490.702 325.973L489.189 326.873C489.071 326.952 489.084 327.082 489.189 327.16L490.676 328.021C490.753 328.06 490.838 328.08 490.924 328.08C491.01 328.08 491.095 328.06 491.172 328.021L492.725 327.134C492.843 327.056 492.829 326.926 492.725 326.847L491.237 325.987C491.161 325.948 491.076 325.927 490.99 325.927C490.903 325.927 490.818 325.948 490.742 325.987" fill="#3A2C6D"/>
<path d="M492.908 324.695L491.355 325.595C491.224 325.673 491.237 325.804 491.355 325.882L492.842 326.743C492.919 326.782 493.004 326.802 493.09 326.802C493.176 326.802 493.261 326.782 493.338 326.743L494.891 325.843C495.022 325.778 494.995 325.647 494.891 325.569L493.416 324.708C493.339 324.67 493.255 324.651 493.169 324.651C493.083 324.651 492.998 324.67 492.921 324.708" fill="#3A2C6D"/>
<path d="M495.101 323.43L493.548 324.33C493.431 324.395 493.444 324.526 493.548 324.617L495.036 325.465C495.113 325.503 495.198 325.522 495.284 325.522C495.37 325.522 495.454 325.503 495.532 325.465L497.084 324.565C497.202 324.5 497.189 324.369 497.084 324.278L495.597 323.43C495.521 323.389 495.435 323.368 495.349 323.368C495.262 323.368 495.177 323.389 495.101 323.43" fill="#3A2C6D"/>
<path d="M497.306 322.165L495.753 323.052C495.623 323.13 495.636 323.261 495.753 323.339L497.241 324.2C497.319 324.235 497.403 324.253 497.489 324.253C497.574 324.253 497.659 324.235 497.737 324.2L499.29 323.3C499.42 323.221 499.394 323.091 499.29 323.013L497.815 322.152C497.738 322.113 497.653 322.093 497.567 322.093C497.481 322.093 497.396 322.113 497.319 322.152" fill="#3A2C6D"/>
<path d="M499.499 320.887L497.947 321.787C497.829 321.865 497.842 321.996 497.947 322.074L499.434 322.935C499.511 322.974 499.596 322.994 499.682 322.994C499.768 322.994 499.853 322.974 499.93 322.935L501.483 322.048C501.6 321.97 501.587 321.839 501.483 321.761L499.995 320.9C499.917 320.865 499.833 320.847 499.747 320.847C499.662 320.847 499.577 320.865 499.499 320.9" fill="#3A2C6D"/>
<path d="M501.705 319.622L500.152 320.522C500.021 320.6 500.034 320.718 500.152 320.809L501.639 321.657C501.715 321.698 501.801 321.719 501.887 321.719C501.974 321.719 502.059 321.698 502.135 321.657L503.688 320.757C503.818 320.692 503.792 320.561 503.688 320.47L502.213 319.622C502.136 319.584 502.051 319.564 501.966 319.564C501.88 319.564 501.795 319.584 501.718 319.622" fill="#3A2C6D"/>
<path d="M504.952 317.744L502.342 319.257C502.212 319.257 502.238 319.453 502.342 319.544L503.83 320.392C503.905 320.43 503.987 320.449 504.071 320.449C504.155 320.449 504.238 320.43 504.313 320.392L506.923 318.879C507.04 318.814 507.027 318.683 506.923 318.592L505.435 317.744C505.359 317.703 505.274 317.682 505.187 317.682C505.1 317.682 505.015 317.703 504.939 317.744" fill="#3A2C6D"/>
<path d="M476.441 331.738L474.888 332.638C474.771 332.703 474.784 332.833 474.888 332.924L476.376 333.772C476.453 333.81 476.537 333.83 476.623 333.83C476.709 333.83 476.794 333.81 476.871 333.772L478.424 332.872C478.542 332.794 478.529 332.677 478.424 332.585L476.937 331.738C476.86 331.697 476.775 331.675 476.689 331.675C476.602 331.675 476.517 331.697 476.441 331.738Z" fill="#3A2C6D"/>
<path d="M478.645 330.473L477.092 331.359C476.962 331.438 476.988 331.568 477.092 331.646L478.567 332.507C478.644 332.546 478.729 332.566 478.815 332.566C478.901 332.566 478.986 332.546 479.063 332.507L480.616 331.62C480.746 331.542 480.733 331.412 480.616 331.333L479.128 330.473C479.051 330.434 478.966 330.413 478.88 330.413C478.794 330.413 478.709 330.434 478.632 330.473" fill="#3A2C6D"/>
<path d="M480.853 329.195L479.3 330.095C479.17 330.095 479.183 330.29 479.3 330.381L480.775 331.229C480.851 331.27 480.936 331.292 481.023 331.292C481.109 331.292 481.194 331.27 481.27 331.229L482.823 330.329C482.954 330.264 482.941 330.134 482.823 330.042L481.362 329.221C481.285 329.183 481.2 329.163 481.114 329.163C481.028 329.163 480.943 329.183 480.866 329.221" fill="#3A2C6D"/>
<path d="M483.056 327.93L481.503 328.816C481.373 328.895 481.386 329.025 481.503 329.103L482.991 329.964C483.068 330.003 483.153 330.023 483.239 330.023C483.325 330.023 483.41 330.003 483.487 329.964L485.04 329.077C485.17 328.999 485.144 328.869 485.04 328.79L483.565 327.93C483.488 327.891 483.403 327.87 483.317 327.87C483.231 327.87 483.146 327.891 483.069 327.93" fill="#3A2C6D"/>
<path d="M485.274 326.665L483.721 327.565C483.591 327.63 483.617 327.76 483.721 327.851L485.196 328.699C485.273 328.737 485.358 328.757 485.444 328.757C485.53 328.757 485.614 328.737 485.692 328.699L487.244 327.799C487.375 327.721 487.362 327.604 487.244 327.512L485.757 326.665C485.681 326.624 485.595 326.602 485.509 326.602C485.422 326.602 485.337 326.624 485.261 326.665" fill="#3A2C6D"/>
<path d="M487.442 325.4L485.889 326.286C485.759 326.365 485.785 326.495 485.889 326.573L487.364 327.434C487.441 327.473 487.525 327.493 487.612 327.493C487.698 327.493 487.783 327.473 487.86 327.434L489.412 326.547C489.543 326.469 489.53 326.339 489.412 326.26L487.925 325.4C487.848 325.361 487.763 325.34 487.677 325.34C487.591 325.34 487.506 325.361 487.429 325.4" fill="#3A2C6D"/>
<path d="M489.646 324.121L488.093 325.021C487.963 325.087 487.976 325.217 488.093 325.308L489.581 326.156C489.658 326.194 489.743 326.214 489.829 326.214C489.915 326.214 489.999 326.194 490.077 326.156L491.629 325.256C491.76 325.256 491.734 325.06 491.629 324.969L490.155 324.121C490.079 324.08 489.993 324.059 489.907 324.059C489.82 324.059 489.735 324.08 489.659 324.121" fill="#3A2C6D"/>
<path d="M491.798 322.856L490.245 323.743C490.115 323.821 490.128 323.952 490.245 324.03L491.733 324.891C491.81 324.93 491.895 324.95 491.981 324.95C492.067 324.95 492.152 324.93 492.229 324.891L493.782 324.004C493.912 323.926 493.886 323.795 493.782 323.717L492.307 322.856C492.23 322.817 492.145 322.797 492.059 322.797C491.973 322.797 491.888 322.817 491.811 322.856" fill="#3A2C6D"/>
<path d="M494.042 321.578L492.49 322.478C492.372 322.557 492.385 322.674 492.49 322.765L493.977 323.613C494.053 323.654 494.138 323.676 494.225 323.676C494.312 323.676 494.397 323.654 494.473 323.613L496.026 322.713C496.143 322.648 496.13 322.517 496.026 322.426L494.538 321.657C494.461 321.619 494.376 321.599 494.29 321.599C494.204 321.599 494.119 321.619 494.042 321.657" fill="#3A2C6D"/>
<path d="M496.251 320.352L494.698 321.239C494.567 321.318 494.593 321.448 494.698 321.526L496.185 322.387C496.26 322.426 496.343 322.446 496.427 322.446C496.511 322.446 496.594 322.426 496.668 322.387L498.221 321.5C498.352 321.422 498.338 321.291 498.221 321.213L496.733 320.352C496.657 320.314 496.572 320.293 496.485 320.293C496.399 320.293 496.314 320.314 496.238 320.352" fill="#3A2C6D"/>
<path d="M498.454 319.048L496.902 319.948C496.771 320.026 496.784 320.144 496.902 320.235L498.376 321.096C498.453 321.135 498.538 321.155 498.624 321.155C498.71 321.155 498.795 321.135 498.872 321.096L500.425 320.196C500.555 320.131 500.542 320 500.425 319.909L498.95 319.061C498.873 319.023 498.788 319.004 498.702 319.004C498.616 319.004 498.532 319.023 498.454 319.061" fill="#3A2C6D"/>
<path d="M500.662 317.744L499.109 318.644C498.978 318.709 498.991 318.84 499.109 318.918L500.583 319.779C500.661 319.814 500.746 319.832 500.831 319.832C500.917 319.832 501.001 319.814 501.079 319.779L502.632 318.879C502.762 318.801 502.749 318.67 502.632 318.592L501.157 317.731C501.081 317.692 500.996 317.672 500.909 317.672C500.823 317.672 500.738 317.692 500.662 317.731" fill="#3A2C6D"/>
<path d="M474.248 333.016L471.638 334.515C471.521 334.594 471.534 334.724 471.638 334.802L473.126 335.663C473.202 335.702 473.287 335.722 473.374 335.722C473.46 335.722 473.545 335.702 473.621 335.663L476.231 334.163C476.349 334.085 476.336 333.955 476.231 333.876L474.744 333.016C474.669 332.977 474.586 332.957 474.502 332.957C474.418 332.957 474.335 332.977 474.261 333.016" fill="#3A2C6D"/>
<path d="M504.847 317.666L503.294 318.566C503.223 318.598 503.145 318.614 503.066 318.614C502.987 318.614 502.91 318.598 502.838 318.566L501.272 317.653C501.237 317.653 501.204 317.639 501.18 317.615C501.155 317.59 501.141 317.557 501.141 317.522C501.141 317.488 501.155 317.455 501.18 317.43C501.204 317.406 501.237 317.392 501.272 317.392L501.389 317.314C501.507 317.248 501.507 317.144 501.389 317.066L499.732 316.114C499.697 316.114 499.664 316.1 499.64 316.076C499.615 316.051 499.602 316.018 499.602 315.983C499.602 315.949 499.615 315.916 499.64 315.891C499.664 315.867 499.697 315.853 499.732 315.853L500.724 315.279C500.795 315.244 500.873 315.225 500.952 315.225C501.031 315.225 501.11 315.244 501.181 315.279L502.733 316.179L503.047 316.362L503.281 316.492L503.516 316.622L504.821 317.392C504.952 317.47 504.952 317.588 504.821 317.666" fill="#3A2C6D"/>
<path d="M466.797 329.925L465.245 330.825C465.114 330.89 465.14 331.02 465.245 331.112L466.719 331.959C466.796 331.997 466.881 332.017 466.967 332.017C467.053 332.017 467.138 331.997 467.215 331.959L468.768 331.06C468.898 330.981 468.885 330.864 468.768 330.773L467.28 329.925C467.204 329.884 467.119 329.862 467.032 329.862C466.946 329.862 466.861 329.884 466.784 329.925" fill="#3A2C6D"/>
<path d="M468.989 328.66L467.436 329.56C467.306 329.625 467.332 329.755 467.436 329.847L468.911 330.694C468.988 330.732 469.073 330.752 469.159 330.752C469.245 330.752 469.329 330.732 469.406 330.694L470.959 329.794C471.09 329.729 471.077 329.599 470.959 329.507L469.472 328.66C469.396 328.619 469.31 328.597 469.224 328.597C469.137 328.597 469.052 328.619 468.976 328.66" fill="#3A2C6D"/>
<path d="M471.18 327.395L469.627 328.295C469.497 328.36 469.523 328.49 469.627 328.582L471.115 329.429C471.19 329.467 471.273 329.487 471.356 329.487C471.44 329.487 471.523 329.467 471.598 329.429L473.151 328.529C473.281 328.464 473.268 328.334 473.151 328.243L471.663 327.395C471.587 327.354 471.502 327.332 471.415 327.332C471.329 327.332 471.243 327.354 471.167 327.395" fill="#3A2C6D"/>
<path d="M489.856 316.623L488.303 317.523C488.173 317.588 488.199 317.718 488.303 317.796L489.778 318.657C489.855 318.695 489.94 318.715 490.026 318.715C490.112 318.715 490.197 318.695 490.274 318.657L491.827 317.757C491.957 317.679 491.944 317.562 491.827 317.47L490.339 316.623C490.263 316.582 490.178 316.56 490.091 316.56C490.004 316.56 489.919 316.582 489.843 316.623" fill="#3A2C6D"/>
<path d="M492.047 315.357L490.495 316.257C490.364 316.323 490.39 316.453 490.495 316.531L491.969 317.392C492.046 317.43 492.131 317.45 492.217 317.45C492.303 317.45 492.388 317.43 492.465 317.392L494.018 316.492C494.148 316.414 494.135 316.283 494.018 316.205L492.53 315.344C492.453 315.305 492.369 315.285 492.282 315.285C492.196 315.285 492.111 315.305 492.034 315.344" fill="#3A2C6D"/>
<path d="M494.239 314.092L492.686 314.992C492.556 315.057 492.582 315.188 492.686 315.279L494.161 316.127C494.238 316.165 494.323 316.185 494.409 316.185C494.495 316.185 494.579 316.165 494.656 316.127L496.209 315.227C496.34 315.149 496.327 315.031 496.209 314.94L494.722 314.092C494.646 314.051 494.56 314.03 494.474 314.03C494.387 314.03 494.302 314.051 494.226 314.092" fill="#3A2C6D"/>
<path d="M496.43 312.827L494.877 313.727C494.747 313.793 494.773 313.923 494.877 314.001L496.352 314.862C496.429 314.9 496.514 314.92 496.6 314.92C496.686 314.92 496.771 314.9 496.848 314.862L498.401 313.962C498.531 313.884 498.518 313.753 498.401 313.675L496.913 312.827C496.837 312.786 496.752 312.765 496.665 312.765C496.579 312.765 496.493 312.786 496.417 312.827" fill="#3A2C6D"/>
<path d="M473.937 325.804L471.823 327.03C471.692 327.095 471.718 327.225 471.823 327.317L473.297 328.164C473.374 328.202 473.459 328.222 473.545 328.222C473.631 328.222 473.716 328.202 473.793 328.164L475.92 326.938C476.038 326.86 476.025 326.743 475.92 326.652L474.433 325.804C474.356 325.763 474.271 325.741 474.185 325.741C474.098 325.741 474.013 325.763 473.937 325.804" fill="#3A2C6D"/>
<path d="M487.664 317.888L485.55 319.113C485.42 319.179 485.433 319.309 485.55 319.4L487.038 320.248C487.115 320.286 487.2 320.306 487.286 320.306C487.372 320.306 487.456 320.286 487.534 320.248L489.648 319.022C489.778 318.944 489.765 318.827 489.648 318.735L488.16 317.888C488.084 317.846 487.999 317.825 487.912 317.825C487.825 317.825 487.74 317.846 487.664 317.888" fill="#3A2C6D"/>
<path d="M484.91 319.479L474.575 325.439C474.458 325.504 474.471 325.634 474.575 325.726L476.063 326.573C476.14 326.611 476.225 326.631 476.311 326.631C476.397 326.631 476.482 326.611 476.559 326.573L486.881 320.613C487.011 320.535 486.985 320.418 486.881 320.326L485.406 319.479C485.33 319.438 485.245 319.416 485.158 319.416C485.072 319.416 484.987 319.438 484.91 319.479" fill="#3A2C6D"/>
<path d="M474.915 330.16L473.363 331.06C473.232 331.138 473.245 331.255 473.363 331.347L474.837 332.194C474.913 332.235 474.999 332.257 475.085 332.257C475.172 332.257 475.257 332.235 475.333 332.194L476.886 331.294C477.016 331.229 477.003 331.099 476.886 331.007L475.411 330.16C475.334 330.122 475.249 330.102 475.163 330.102C475.077 330.102 474.993 330.122 474.915 330.16" fill="#3A2C6D"/>
<path d="M477.105 328.895L475.552 329.795C475.435 329.86 475.448 329.99 475.552 330.081L477.04 330.929C477.114 330.967 477.197 330.987 477.281 330.987C477.365 330.987 477.448 330.967 477.522 330.929L479.075 330.029C479.206 329.964 479.193 329.834 479.075 329.742L477.588 328.895C477.512 328.854 477.426 328.832 477.34 328.832C477.253 328.832 477.168 328.854 477.092 328.895" fill="#3A2C6D"/>
<path d="M479.297 327.629L477.757 328.529C477.627 328.595 477.64 328.725 477.757 328.816L479.245 329.664C479.322 329.702 479.407 329.722 479.493 329.722C479.579 329.722 479.663 329.702 479.741 329.664L481.293 328.764C481.411 328.686 481.398 328.569 481.293 328.477L479.806 327.629C479.73 327.588 479.644 327.567 479.558 327.567C479.471 327.567 479.386 327.588 479.31 327.629" fill="#3A2C6D"/>
<path d="M481.505 326.364L479.952 327.251C479.822 327.33 479.835 327.46 479.952 327.538L481.427 328.399C481.504 328.438 481.589 328.458 481.675 328.458C481.761 328.458 481.846 328.438 481.923 328.399L483.476 327.512C483.606 327.434 483.593 327.303 483.476 327.225L482.001 326.364C481.924 326.325 481.839 326.305 481.753 326.305C481.667 326.305 481.582 326.325 481.505 326.364" fill="#3A2C6D"/>
<path d="M483.696 325.1L482.143 325.986C482.013 326.065 482.039 326.195 482.143 326.273L483.618 327.134C483.694 327.173 483.779 327.193 483.866 327.193C483.952 327.193 484.037 327.173 484.113 327.134L485.666 326.247C485.797 326.169 485.784 326.039 485.666 325.96L484.179 325.1C484.102 325.061 484.017 325.04 483.931 325.04C483.845 325.04 483.76 325.061 483.683 325.1" fill="#3A2C6D"/>
<path d="M485.89 323.822L484.337 324.721C484.22 324.8 484.233 324.93 484.337 325.008L485.825 325.869C485.902 325.908 485.987 325.928 486.073 325.928C486.159 325.928 486.244 325.908 486.321 325.869L487.873 324.982C487.991 324.904 487.978 324.774 487.873 324.695L486.386 323.835C486.308 323.799 486.223 323.781 486.138 323.781C486.052 323.781 485.968 323.799 485.89 323.835" fill="#3A2C6D"/>
<path d="M488.095 322.556L486.542 323.456C486.412 323.535 486.425 323.652 486.542 323.743L488.017 324.591C488.093 324.632 488.178 324.654 488.265 324.654C488.351 324.654 488.437 324.632 488.513 324.591L490.066 323.691C490.196 323.626 490.183 323.495 490.066 323.404L488.591 322.556C488.514 322.519 488.429 322.499 488.343 322.499C488.257 322.499 488.172 322.519 488.095 322.556" fill="#3A2C6D"/>
<path d="M490.286 321.291L488.733 322.191C488.602 322.191 488.628 322.387 488.733 322.478L490.207 323.326C490.285 323.364 490.369 323.384 490.455 323.384C490.541 323.384 490.626 323.364 490.703 323.326L492.256 322.426C492.387 322.348 492.374 322.23 492.256 322.139L490.769 321.291C490.692 321.25 490.607 321.229 490.521 321.229C490.434 321.229 490.349 321.25 490.273 321.291" fill="#3A2C6D"/>
<path d="M492.48 320.026L490.927 320.926C490.81 320.991 490.823 321.122 490.927 321.2L492.415 322.061C492.492 322.099 492.577 322.119 492.663 322.119C492.749 322.119 492.833 322.099 492.911 322.061L494.463 321.161C494.581 321.083 494.568 320.965 494.463 320.874L492.976 320.013C492.899 319.974 492.814 319.954 492.728 319.954C492.642 319.954 492.557 319.974 492.48 320.013" fill="#3A2C6D"/>
<path d="M494.685 318.761L493.132 319.648C493.002 319.726 493.015 319.857 493.132 319.935L494.62 320.796C494.697 320.835 494.782 320.855 494.868 320.855C494.954 320.855 495.039 320.835 495.116 320.796L496.668 319.909C496.799 319.831 496.773 319.7 496.668 319.622L495.194 318.761C495.117 318.722 495.032 318.702 494.946 318.702C494.86 318.702 494.775 318.722 494.698 318.761" fill="#3A2C6D"/>
<path d="M496.876 317.483L495.323 318.383C495.192 318.462 495.218 318.592 495.323 318.67L496.797 319.531C496.874 319.57 496.959 319.59 497.045 319.59C497.131 319.59 497.216 319.57 497.293 319.531L498.846 318.644C498.977 318.566 498.963 318.435 498.846 318.357L497.358 317.496C497.281 317.461 497.196 317.443 497.11 317.443C497.025 317.443 496.94 317.461 496.863 317.496" fill="#3A2C6D"/>
<path d="M499.07 316.218L497.517 317.118C497.399 317.196 497.412 317.327 497.517 317.405L499.004 318.266C499.081 318.305 499.166 318.325 499.252 318.325C499.339 318.325 499.423 318.305 499.5 318.266L501.053 317.366C501.171 317.301 501.158 317.17 501.053 317.092L499.566 316.231C499.488 316.193 499.404 316.174 499.318 316.174C499.232 316.174 499.147 316.193 499.07 316.231" fill="#3A2C6D"/>
<path d="M472.72 331.438L469.497 333.29C469.38 333.355 469.393 333.485 469.497 333.577L470.985 334.424C471.062 334.462 471.147 334.482 471.233 334.482C471.319 334.482 471.404 334.462 471.481 334.424L474.691 332.572C474.808 332.494 474.795 332.364 474.691 332.285L473.216 331.425C473.14 331.386 473.055 331.365 472.968 331.365C472.882 331.365 472.797 331.386 472.72 331.425" fill="#3A2C6D"/>
<path d="M471.689 329.56L470.136 330.46C470.006 330.538 470.019 330.655 470.136 330.746L471.611 331.594C471.687 331.635 471.772 331.657 471.859 331.657C471.945 331.657 472.03 331.635 472.106 331.594L473.659 330.694C473.79 330.629 473.777 330.499 473.659 330.407L472.185 329.56C472.108 329.522 472.023 329.502 471.937 329.502C471.851 329.502 471.766 329.522 471.689 329.56" fill="#3A2C6D"/>
<path d="M473.882 328.295L472.329 329.195C472.212 329.26 472.225 329.39 472.329 329.482L473.817 330.329C473.894 330.367 473.979 330.387 474.065 330.387C474.151 330.387 474.236 330.367 474.313 330.329L475.853 329.429C475.983 329.351 475.97 329.234 475.853 329.142L474.365 328.295C474.289 328.254 474.204 328.232 474.117 328.232C474.031 328.232 473.945 328.254 473.869 328.295" fill="#3A2C6D"/>
<path d="M476.142 327.03L474.589 327.93C474.459 327.995 474.472 328.125 474.589 328.216L476.077 329.064C476.154 329.102 476.239 329.122 476.325 329.122C476.411 329.122 476.495 329.102 476.573 329.064L478.125 328.164C478.256 328.086 478.23 327.969 478.125 327.877L476.651 327.03C476.575 326.989 476.49 326.967 476.403 326.967C476.316 326.967 476.231 326.989 476.155 327.03" fill="#3A2C6D"/>
<path d="M478.279 325.765L476.726 326.651C476.595 326.73 476.608 326.86 476.726 326.938L478.2 327.799C478.277 327.838 478.362 327.858 478.448 327.858C478.534 327.858 478.619 327.838 478.696 327.799L480.249 326.912C480.38 326.834 480.367 326.704 480.249 326.625L478.775 325.765C478.698 325.726 478.613 325.705 478.527 325.705C478.44 325.705 478.356 325.726 478.279 325.765" fill="#3A2C6D"/>
<path d="M480.473 324.5L478.92 325.387C478.79 325.465 478.816 325.595 478.92 325.673L480.395 326.534C480.472 326.573 480.557 326.593 480.643 326.593C480.729 326.593 480.814 326.573 480.891 326.534L482.444 325.647C482.574 325.569 482.561 325.439 482.444 325.36L480.956 324.5C480.879 324.461 480.794 324.44 480.708 324.44C480.622 324.44 480.537 324.461 480.46 324.5" fill="#3A2C6D"/>
<path d="M482.663 323.222L481.111 324.122C480.993 324.2 481.006 324.33 481.111 324.408L482.598 325.269C482.675 325.308 482.76 325.328 482.846 325.328C482.932 325.328 483.017 325.308 483.094 325.269L484.647 324.382C484.764 324.304 484.751 324.174 484.647 324.095L483.159 323.235C483.081 323.199 482.997 323.181 482.911 323.181C482.826 323.181 482.741 323.199 482.663 323.235" fill="#3A2C6D"/>
<path d="M484.869 321.957L483.316 322.857C483.185 322.935 483.198 323.052 483.316 323.143L484.803 323.991C484.879 324.032 484.965 324.054 485.051 324.054C485.138 324.054 485.223 324.032 485.299 323.991L486.852 323.091C486.983 323.026 486.956 322.896 486.852 322.804L485.377 321.957C485.3 321.919 485.216 321.899 485.13 321.899C485.044 321.899 484.959 321.919 484.882 321.957" fill="#3A2C6D"/>
<path d="M487.063 320.692L485.51 321.591C485.38 321.657 485.406 321.787 485.51 321.878L486.985 322.726C487.062 322.764 487.147 322.784 487.233 322.784C487.319 322.784 487.404 322.764 487.481 322.726L489.033 321.826C489.164 321.748 489.151 321.631 489.033 321.539L487.546 320.692C487.47 320.65 487.384 320.629 487.298 320.629C487.211 320.629 487.126 320.65 487.05 320.692" fill="#3A2C6D"/>
<path d="M489.253 319.426L487.7 320.326C487.583 320.326 487.596 320.522 487.7 320.613L489.188 321.461C489.265 321.499 489.35 321.519 489.436 321.519C489.522 321.519 489.607 321.499 489.684 321.461L491.224 320.561C491.354 320.483 491.341 320.365 491.224 320.274L489.736 319.426C489.66 319.385 489.575 319.364 489.488 319.364C489.402 319.364 489.316 319.385 489.24 319.426" fill="#3A2C6D"/>
<path d="M491.458 318.161L489.906 319.048C489.775 319.126 489.788 319.257 489.906 319.335L491.393 320.196C491.471 320.231 491.556 320.249 491.641 320.249C491.727 320.249 491.811 320.231 491.889 320.196L493.442 319.296C493.572 319.218 493.546 319.087 493.442 319.009L491.967 318.148C491.891 318.109 491.806 318.089 491.719 318.089C491.633 318.089 491.548 318.109 491.471 318.148" fill="#3A2C6D"/>
<path d="M493.654 316.896L492.101 317.783C491.97 317.861 491.983 317.992 492.101 318.07L493.575 318.931C493.652 318.97 493.737 318.99 493.823 318.99C493.909 318.99 493.994 318.97 494.071 318.931L495.624 318.044C495.755 317.966 495.742 317.835 495.624 317.757L494.15 316.896C494.073 316.857 493.988 316.837 493.902 316.837C493.815 316.837 493.731 316.857 493.654 316.896" fill="#3A2C6D"/>
<path d="M498.559 314.053L494.291 316.518C494.161 316.597 494.187 316.727 494.291 316.805L495.766 317.666C495.843 317.705 495.928 317.725 496.014 317.725C496.1 317.725 496.185 317.705 496.262 317.666L500.542 315.201C500.659 315.136 500.646 315.005 500.542 314.914L499.054 314.066C498.977 314.029 498.892 314.009 498.806 314.009C498.72 314.009 498.636 314.029 498.559 314.066" fill="#3A2C6D"/>
<path d="M469.499 330.786L467.372 332.012C467.255 332.09 467.268 332.22 467.372 332.298L468.86 333.159C468.937 333.198 469.022 333.218 469.108 333.218C469.194 333.218 469.279 333.198 469.356 333.159L471.47 331.933C471.6 331.868 471.574 331.738 471.47 331.659L469.995 330.799C469.917 330.763 469.833 330.745 469.747 330.745C469.662 330.745 469.577 330.763 469.499 330.799" fill="#3A2C6D"/>
<path d="M507.171 319.048L475.984 337.046C475.853 337.111 475.866 337.241 475.984 337.333L476.727 337.75C476.805 337.788 476.889 337.808 476.975 337.808C477.061 337.808 477.146 337.788 477.223 337.75L508.411 319.753C508.541 319.674 508.515 319.544 508.411 319.466L507.667 319.035C507.593 318.996 507.51 318.976 507.426 318.976C507.342 318.976 507.259 318.996 507.184 319.035" fill="#3A2C6D"/>
<path d="M470.672 319.818L470.868 319.935L476.257 323.039L485.835 317.509L486.031 317.405L480.446 314.171L470.672 319.818Z" fill="#BFBFBF"/>
<path d="M470.867 319.935L476.257 323.039L485.835 317.509L480.445 314.406L470.867 319.935Z" fill="#E5E5E5"/>
<path d="M455.262 327.082V327.551C455.262 327.897 455.352 328.236 455.524 328.536C455.696 328.835 455.943 329.085 456.24 329.26L475.24 340.215C475.536 340.39 475.875 340.481 476.219 340.476C476.567 340.479 476.909 340.389 477.211 340.215L511.608 320.353C511.909 320.18 512.16 319.932 512.334 319.632C512.508 319.332 512.6 318.991 512.6 318.644V318.175L476.258 339.132L455.262 327.082Z" fill="#E5E5E5"/>
<path d="M476.82 339.471C477.146 339.595 477.495 339.645 477.843 339.618C478.19 339.591 478.527 339.488 478.83 339.315L513.045 319.57C513.341 319.396 513.595 319.161 513.791 318.879C513.987 318.598 514.12 318.277 514.18 317.94L517.899 295.574C517.899 295.443 517.899 295.313 517.899 295.195C517.901 294.887 517.84 294.582 517.721 294.297C517.602 294.013 517.428 293.755 517.208 293.539L481.701 314.093C481.482 314.222 481.294 314.398 481.15 314.608C481.006 314.817 480.909 315.055 480.866 315.305L476.82 339.471Z" fill="#F4F4F4"/>
<path d="M476.258 339.171L476.493 339.315L476.819 339.471L480.864 315.305C480.908 315.055 481.005 314.817 481.149 314.607C481.293 314.398 481.481 314.222 481.699 314.092L517.259 293.578C517.12 293.435 516.961 293.312 516.789 293.213L481.151 313.832C480.932 313.957 480.743 314.13 480.599 314.338C480.454 314.545 480.358 314.782 480.316 315.031L476.258 339.171Z" fill="#E5E5E5"/>
<path d="M450.434 243.629C450.434 243.629 450.864 252.119 450.682 252.876C450.499 253.632 446.767 256.11 445.697 257.01C444.627 257.91 451.569 264.756 454.962 266.308C458.355 267.86 469.055 263.778 469.316 258.483C469.577 253.189 467.476 248.807 465.832 248.572C464.188 248.337 450.499 243.603 450.499 243.603" fill="#FFCEA9"/>
<path d="M449.479 254.336C449.479 254.336 455.652 263.53 464.251 264.391C466.965 261.783 467.213 252.197 463.455 249.159C463.455 249.159 466.913 246.381 469.275 246.916C471.811 248.456 473.699 250.867 474.586 253.697C476.782 260.028 477.812 266.705 477.626 273.403C477.483 282.415 477.626 305.198 477.626 305.198C477.626 305.198 476.322 313.91 468.557 318.24C462.355 321.736 455.054 322.743 448.135 321.057C443.777 320.039 442.159 317.601 440.658 314.432C441.049 308.119 443.542 295.117 442.498 287.162C441.454 279.206 439.758 273.299 439.327 266.869C438.896 260.44 440.175 260.57 443.398 258.288C445.331 256.843 447.363 255.536 449.479 254.375" fill="#F4F4F4"/>
<path d="M459.372 327.551C457.82 326.532 456.208 325.609 454.543 324.787C452.981 324.301 451.561 323.441 450.407 322.283C448.893 320.809 446.414 315.201 444.652 309.75C442.88 303.589 442.174 297.172 442.564 290.774C443.321 283.119 446.074 272.399 446.779 267.991C447.484 263.583 446.048 261.835 443.999 260.166C441.598 258.262 438.271 259.109 436.496 265.278C434.228 273.827 432.915 282.601 432.581 291.439C432.513 298.003 433.527 304.533 435.583 310.767C437.414 316.112 439.89 321.214 442.956 325.96C443.804 327.382 444.078 328.647 445.37 331.555C446.619 334.478 448.558 337.056 451.02 339.067C453.173 340.619 454.204 340.828 454.713 340.528C455.222 340.228 455.209 339.471 454.308 338.65C452.751 337.462 451.424 335.999 450.394 334.333C450.394 334.333 452.273 336.224 453.512 337.267C454.611 338.187 455.827 338.959 457.127 339.563C458.432 340.11 460.141 339.041 459.254 338.193C458.367 337.346 457.44 336.889 455.626 335.363C454.648 334.545 453.772 333.613 453.017 332.585C454.281 333.559 455.621 334.431 457.023 335.194C458.122 335.864 459.389 336.208 460.676 336.185C461.355 336.185 462.164 335.22 460.911 334.32C459.19 333.428 457.583 332.334 456.122 331.06C454.739 329.677 453.956 328.451 454.348 328.451C454.739 328.451 455.496 329.299 457.114 329.755C458.732 330.212 460.468 329.755 460.676 328.908C460.885 328.06 460.82 328.19 459.306 327.434" fill="#FFCEA9"/>
<path d="M469.615 230.966C468.598 224.367 463.848 219.372 457.049 219.75C455.327 219.843 453.64 220.275 452.086 221.021C450.531 221.766 449.138 222.811 447.988 224.095C446.838 225.379 445.952 226.877 445.382 228.504C444.812 230.13 444.568 231.853 444.665 233.574C444.782 235.574 445.359 237.52 446.35 239.262C447.341 241.003 448.72 242.493 450.381 243.616C450.622 244.616 450.972 245.587 451.425 246.511C453.839 249.315 461.12 251.063 463.169 250.763C465.857 250.371 467.306 249.25 468.584 246.316C470.842 241.099 470.137 234.226 469.576 230.966" fill="#FFCEA9"/>
<path d="M450.434 243.616L451.061 237.865C451.061 237.865 446.35 225.697 457.468 228.031C464.802 229.583 466.602 230.249 468.873 225.332C471.144 220.415 463.236 215.981 453.879 217.207C450.672 217.548 447.708 219.075 445.569 221.488C443.43 223.901 442.27 227.025 442.318 230.249C442.566 233.874 443.531 241.19 450.434 243.551" fill="#2B2A30"/>
<path d="M431.406 276.65C431.406 276.65 437.474 282.675 444.651 280.941C445.669 280.25 448.135 266.152 448.135 266.152C448.135 266.152 448.135 258.327 442.146 258.549C436.156 258.77 431.406 276.65 431.406 276.65" fill="#EDEDED"/>
<path d="M477.211 264.952C477.211 264.952 480.382 264.795 481.687 262.957C481.452 259.801 477.407 247.815 469.277 246.916C471.488 248.468 473.241 250.584 474.354 253.045C475.615 256.933 476.571 260.915 477.211 264.952" fill="#EDEDED"/>
<path d="M81.8988 5.17746C83.5039 2.56915 95.731 0.912872 99.7632 11.2679C101.29 15.1803 101.068 25.2484 102.373 31.5605C103.678 37.8726 106.653 41.446 107.736 46.5713C108.819 51.6966 107.058 60.2649 94.687 61.7908C82.3164 63.3166 72.8426 58.9738 69.8935 55.0353C66.9444 51.0967 66.9183 42.7501 69.8935 38.2508C72.8687 33.7515 75.2307 30.1129 75.1132 24.2572L81.8988 5.17746Z" fill="#2B2A30"/>
<path d="M89.9746 3.44308C89.9746 3.44308 80.7618 0.834771 75.1767 5.77752C73.336 7.47439 71.9972 9.64425 71.3068 12.05C70.6164 14.4558 70.6009 17.005 71.262 19.419C72.0058 22.3272 73.4934 26.2919 75.8031 26.5136C78.1128 26.7353 89.9746 3.44308 89.9746 3.44308Z" fill="#2B2A30"/>
<path d="M93.4984 28.5088C93.4984 28.5088 92.8982 38.7725 93.0808 39.5159C93.2635 40.2592 97.1131 41.0026 98.1962 41.9025C99.2792 42.8023 92.6111 53.2095 89.2183 54.7484C85.8255 56.2873 75.3339 52.3618 74.6031 47.1451C73.9376 42.3328 77.6175 38.6029 79.0268 37.2988C79.9913 37.2318 80.9593 37.2318 81.9238 37.2988L82.2239 32.3169C86.8172 30.8563 93.4984 28.574 93.4984 28.574" fill="#FFCEA9"/>
<path d="M63.288 83.2833C60.3752 87.281 56.9287 90.8616 53.0443 93.9252C51.8119 95.2092 50.6447 96.5541 49.5471 97.955C47.7138 100.068 45.3418 101.646 42.6832 102.52C40.3605 103.119 39.3818 102.963 38.9903 102.52C38.5988 102.076 38.7815 101.411 39.7993 101.02C41.4432 100.536 42.9738 99.7291 44.3013 98.6462C44.3013 98.6462 42.1352 99.6374 40.778 100.12C39.5533 100.544 38.275 100.794 36.9807 100.863C35.6758 100.863 34.3709 99.3765 35.3757 98.9462C36.3804 98.5158 37.3069 98.4767 39.2904 97.7333C40.3456 97.3592 41.3462 96.846 42.2656 96.2075C40.8837 96.6181 39.4693 96.9104 38.0377 97.0812C36.8442 97.2766 35.6199 97.1367 34.5014 96.677C33.9011 96.4161 33.3791 95.3728 34.7232 94.9685C36.468 94.8022 38.1834 94.4076 39.8254 93.7948C41.3914 93.0775 42.4353 92.3341 42.0308 92.1776C41.6262 92.0211 40.7258 92.5167 39.2121 92.3993C37.6984 92.282 36.1717 91.2908 36.1847 90.4431C36.1978 89.5954 36.524 90.0649 38.0638 89.9345C39.6036 89.8041 40.8302 89.0998 43.0356 89.0998C44.6876 89.1653 46.3394 88.9672 47.929 88.5129C49.5993 88.0174 53.3575 83.518 56.2414 79.3839C59.3738 74.7845 61.8508 69.772 63.6011 64.4904C65.3367 58.8043 67.3985 48.1624 68.8208 44.4717C70.2432 40.7809 72.8269 39.0855 75.2411 39.0073C78.0727 38.916 79.2863 42.6458 78.5295 45.8671C77.2245 51.5141 70.9087 73.2543 63.2358 83.3224" fill="#FFCEA9"/>
<path d="M94.9053 40.5202C97.7892 40.9636 101.091 42.5025 101.547 44.0805C102.069 45.9324 103.218 54.605 100.712 61.2171C98.2067 67.8292 95.3881 79.7361 93.9527 82.5922C93.9527 82.5922 82.5216 84.6267 72.4476 78.3928C72.4476 78.3928 71.8473 66.9032 71.8082 63.1212C62.5171 55.0093 70.5032 45.0325 78.3328 37.2598C79.275 37.1816 80.2222 37.1816 81.1644 37.2598C81.1644 37.2598 74.144 45.5542 79.0244 50.3013C89.4638 47.1322 91.5647 42.4764 94.9053 40.5723" fill="#F4F4F4"/>
<path d="M74.3136 15.7802C75.3445 9.2594 80.1075 4.21233 86.9192 4.60357C89.6636 4.74443 92.2935 5.74758 94.4339 7.47003C96.5743 9.19248 98.116 11.5463 98.8392 14.1959C99.5624 16.8455 99.4301 19.6557 98.4613 22.2258C97.4925 24.7959 95.7365 26.9947 93.4438 28.5087C93.2085 29.5066 92.8582 30.4738 92.3998 31.3909C89.9727 34.1948 83.5786 35.9685 81.4646 35.9946C79.6377 35.9946 78.0587 34.3122 76.3493 31.4822C72.7868 25.5744 73.7394 19.0406 74.2614 15.8323" fill="#FFCEA9"/>
<path d="M89.0205 4.7472C93.7965 5.68619 97.7244 7.02947 99.0162 11.7114C99.9036 14.9457 101.065 21.0882 99.9558 23.6835L99.2772 25.5485L93.4964 28.535C93.4964 28.535 90.7952 26.2788 91.6434 19.6928C91.6068 18.8022 91.3221 17.9395 90.8213 17.2019C90.4627 16.5825 90.1947 15.9149 90.0253 15.2196C89.344 13.4374 88.0031 11.9852 86.2802 11.1636C81.9739 8.75095 75.6712 10.8376 74.7969 11.6983C76.0103 9.08499 78.0859 6.96803 80.6756 5.70244C83.2652 4.43685 86.2116 4.09959 89.0205 4.7472Z" fill="#2B2A30"/>
<path d="M62.7395 162.55C60.3254 164.519 56.5672 163.163 56.3846 163.345C53.9313 165.797 50.2645 167.949 47.5372 170.088C46.0365 171.275 43.6876 172.866 44.1183 175.135C44.8751 179.204 51.3867 177.952 53.853 176.713C56.3193 175.474 58.3158 173.4 60.6386 171.953C62.2959 170.922 63.927 170.401 64.188 168.301C64.3446 166.997 63.1702 162.511 62.7395 162.55" fill="#2B2A30"/>
<path d="M64.1632 167.479C63.837 169.488 62.2319 170.088 60.5877 171.066C58.2128 172.527 56.1379 174.652 53.6847 175.891C51.2314 177.13 45.7377 178.2 44.2109 175.278C45.0722 179.191 51.4794 177.965 53.9196 176.739C56.3598 175.513 58.3824 173.426 60.7052 171.979C62.3624 170.949 63.9936 170.427 64.2546 168.327C64.2853 168.045 64.2853 167.761 64.2546 167.479" fill="#BF4B4B"/>
<path d="M50.9691 156.029C48.7638 157.829 45.4232 156.825 45.2535 156.994C43.0091 159.25 39.6685 161.18 37.163 163.15C35.7928 164.232 33.6397 165.68 34.0312 167.766C34.7228 171.496 40.6863 170.375 42.9438 169.214C45.2013 168.053 47.0282 166.175 49.1683 164.858C50.682 163.919 52.1827 163.424 52.4175 161.507C52.5611 160.346 51.3606 155.99 50.9691 156.029" fill="#2B2A30"/>
<path d="M52.3928 160.685C52.0926 162.511 50.6181 163.019 49.1174 163.958C46.9512 165.262 45.046 167.245 42.7885 168.379C40.531 169.514 35.5201 170.479 34.0586 167.819C34.8546 171.405 40.7137 170.283 42.9451 169.123C45.1765 167.962 47.0295 166.097 49.1696 164.78C50.6833 163.828 52.184 163.345 52.4189 161.428C52.4498 161.173 52.4498 160.914 52.4189 160.659" fill="#BF4B4B"/>
<path d="M84.4269 85.1221C77.8775 85.985 71.2169 85.0238 65.1793 82.3442C65.2837 84.3787 65.3881 86.2567 65.3881 86.2567C57.5586 91.7863 41.8995 101.098 40.8164 107.527C41.8342 127.833 44.9269 156.838 45.8012 157.255C48.2675 158.429 49.99 158.233 51.1383 157.072C51.1383 157.072 56.084 139.87 54.6486 114.622C54.6486 114.622 82.052 102.493 83.8397 95.8683C84.8706 92.0471 84.6618 91.5646 84.5835 87.613C84.5835 86.7914 84.5052 85.9828 84.4269 85.1743" fill="#FFCEA9"/>
<path d="M93.5249 82.4878C88.0964 85.0179 83.0855 85.3308 76.9784 84.7049C77.0567 87.4175 77.3699 92.5298 77.3699 92.5298C69.5404 98.0594 53.8813 107.371 52.7852 113.801C53.816 134.106 55.7082 163.515 56.6086 163.88C57.6659 164.342 58.8269 164.515 59.9731 164.382C61.1193 164.249 62.2097 163.815 63.1332 163.124C63.1332 163.124 68.0789 146.17 66.6434 120.895C66.6434 120.426 90.1321 108.871 93.1073 105.806C96.3044 102.533 96.6697 98.2159 96.5914 93.8861C96.5131 89.8171 95.2865 86.4655 93.551 82.4878" fill="#FFCEA9"/>
<path d="M99.279 86.7914C99.279 86.7914 107.97 102.167 93.4851 110.071C78.2175 118.404 68.9004 120.36 68.9004 120.36L66.6168 120.895C66.6168 120.895 67.6998 126.477 66.6168 136.871C66.6168 136.871 55.7207 140.679 41.8232 128.446L37.2168 113.631L36.6688 109.718C36.4026 108.376 36.4756 106.989 36.8812 105.681C37.2868 104.374 38.0121 103.189 38.9915 102.233C42.3191 99.22 52.889 91.4864 59.4658 87.0522C66.0426 82.6181 71.2884 78.3927 71.2884 78.3927L72.4367 77.3232C72.4367 77.3232 80.2662 83.518 94.4769 81.4444C96.3632 82.9599 97.9972 84.7646 99.3181 86.7914" fill="#E26D6D"/>
<path d="M90.6646 109.601C91.9695 108.701 92.8568 107.41 94.8664 106.289C96.4251 105.512 97.8519 104.496 99.0944 103.276C100.399 101.972 102.396 96.364 103.427 90.9127C104.372 84.8232 104.266 78.6169 103.114 72.5632C101.311 65.331 98.8793 58.2703 95.8451 51.462C93.9138 47.38 94.9969 44.9412 96.7586 43.0893C98.8334 40.9635 101 41.0157 103.453 46.7148C105.906 52.414 109.834 63.1863 111.087 71.4938C112.077 77.6957 111.994 84.0218 110.839 90.1954C109.809 95.5923 108.135 100.846 105.854 105.845C105.214 107.319 105.11 108.558 104.236 111.505C103.385 114.437 101.841 117.121 99.7338 119.33C97.8547 121.078 96.9021 121.417 96.3801 121.182C95.8582 120.947 95.7668 120.23 96.5367 119.33C97.8604 118 98.9306 116.44 99.6946 114.727C99.6946 114.727 98.1157 116.774 97.0848 117.922C96.1523 118.932 95.0853 119.81 93.9138 120.53C92.7655 121.221 90.9517 120.413 91.7085 119.487C92.4654 118.561 93.2875 118.052 94.8273 116.331C95.6483 115.427 96.358 114.429 96.9413 113.357C95.849 114.442 94.6708 115.436 93.418 116.331C92.4475 117.108 91.2749 117.592 90.0382 117.726C89.3988 117.726 88.5114 116.983 89.5945 115.965C91.1243 114.96 92.5341 113.783 93.7964 112.457C94.9447 110.971 95.558 109.771 95.1796 109.784C94.8012 109.797 94.1879 110.723 92.7003 111.414C91.2126 112.105 89.4901 111.87 89.19 111.049C88.8899 110.227 89.3466 110.514 90.7037 109.601" fill="#FFCEA9"/>
<path d="M107.253 54.3831C107.253 54.3831 102.033 59.052 96.1221 58.0999L93.7994 48.3188C93.7994 48.3188 92.2465 43.1022 96.6702 41.1981C101.094 39.294 105.296 44.3802 107.201 54.3831" fill="#EDEDED"/>
<path d="M78.3342 37.2598C78.3342 37.2598 72.6316 35.5253 66.5898 48.1495L68.8474 49.5188C68.8474 49.5188 74.8109 40.5071 78.3472 37.2598" fill="#EDEDED"/>
<path d="M38.9922 91.7081L59.3098 79.9707C59.4864 79.8688 59.6867 79.8152 59.8905 79.8152C60.0944 79.8152 60.2947 79.8688 60.4712 79.9707L96.0956 100.524L75.2168 112.588L38.9922 91.7081Z" fill="#F4F4F4"/>
<path d="M75.712 107.971L77.2649 108.871C77.3954 108.871 77.3693 109.066 77.2649 109.158L75.7772 110.005C75.7024 110.043 75.6197 110.063 75.5358 110.063C75.452 110.063 75.3693 110.043 75.2944 110.005L73.7024 109.08C73.5719 109.001 73.585 108.884 73.7024 108.793L75.19 107.945C75.2662 107.904 75.3514 107.882 75.438 107.882C75.5245 107.882 75.6097 107.904 75.6859 107.945" fill="#3A2C6D"/>
<path d="M73.5054 106.706L75.0583 107.606C75.1888 107.606 75.1757 107.801 75.0583 107.88L73.5707 108.74C73.4928 108.776 73.4083 108.794 73.3227 108.794C73.2372 108.794 73.1527 108.776 73.0748 108.74L71.5219 107.84C71.3915 107.762 71.4176 107.632 71.5219 107.554L72.9965 106.693C73.0733 106.654 73.1583 106.634 73.2444 106.634C73.3306 106.634 73.4155 106.654 73.4924 106.693" fill="#3A2C6D"/>
<path d="M71.2861 105.415L72.839 106.315C72.9564 106.393 72.9434 106.51 72.839 106.602L71.3514 107.462C71.2768 107.501 71.194 107.521 71.11 107.521C71.0259 107.521 70.9431 107.501 70.8686 107.462L69.3157 106.562C69.1852 106.497 69.1983 106.367 69.3157 106.289L70.8033 105.428C70.8804 105.39 70.9653 105.37 71.0512 105.37C71.1372 105.37 71.222 105.39 71.2992 105.428" fill="#3A2C6D"/>
<path d="M69.1103 104.163L70.6632 105.063C70.7937 105.141 70.7806 105.258 70.6632 105.349L69.1886 106.197C69.1125 106.238 69.0273 106.26 68.9407 106.26C68.8541 106.26 68.7689 106.238 68.6928 106.197L67.1399 105.297C67.0094 105.232 67.0225 105.102 67.1399 105.01L68.6145 104.163C68.6916 104.125 68.7764 104.105 68.8624 104.105C68.9484 104.105 69.0332 104.125 69.1103 104.163Z" fill="#3A2C6D"/>
<path d="M66.9183 102.898L68.4712 103.798C68.5886 103.863 68.5756 103.993 68.4712 104.085L66.9835 104.932C66.9064 104.97 66.8216 104.99 66.7356 104.99C66.6496 104.99 66.5648 104.97 66.4877 104.932L64.9348 104.032C64.8174 103.954 64.8304 103.837 64.9348 103.746L66.4224 102.898C66.4986 102.857 66.5838 102.835 66.6704 102.835C66.7569 102.835 66.8421 102.857 66.9183 102.898Z" fill="#3A2C6D"/>
<path d="M64.7119 101.633L66.2648 102.52C66.3953 102.598 66.3822 102.728 66.2648 102.806L64.7902 103.667C64.7134 103.706 64.6284 103.726 64.5423 103.726C64.4561 103.726 64.3712 103.706 64.2943 103.667L62.7415 102.78C62.611 102.702 62.624 102.572 62.7415 102.493L64.216 101.633C64.2929 101.594 64.3778 101.573 64.464 101.573C64.5501 101.573 64.6351 101.594 64.7119 101.633Z" fill="#3A2C6D"/>
<path d="M62.4808 100.355L64.0337 101.255C64.1511 101.333 64.138 101.45 64.0337 101.542L62.546 102.402C62.4692 102.441 62.3843 102.462 62.2981 102.462C62.212 102.462 62.127 102.441 62.0502 102.402L60.4973 101.502C60.3799 101.502 60.3929 101.307 60.4973 101.229L61.9849 100.368C62.0621 100.33 62.1469 100.31 62.2329 100.31C62.3188 100.31 62.4037 100.33 62.4808 100.368" fill="#3A2C6D"/>
<path d="M60.3135 99.0897L61.8663 99.9896C61.9968 100.055 61.9838 100.185 61.8663 100.276L60.3918 101.124C60.3146 101.162 60.2298 101.182 60.1438 101.182C60.0579 101.182 59.973 101.162 59.8959 101.124L58.343 100.224C58.2125 100.146 58.2256 100.029 58.343 99.9374L59.8176 99.0897C59.8938 99.0486 59.979 99.0271 60.0655 99.0271C60.1521 99.0271 60.2373 99.0486 60.3135 99.0897Z" fill="#3A2C6D"/>
<path d="M58.1214 97.8245L59.6743 98.7113C59.7917 98.7896 59.7787 98.92 59.6743 98.9982L58.1867 99.859C58.1088 99.8943 58.0243 99.9125 57.9387 99.9125C57.8532 99.9125 57.7687 99.8943 57.6908 99.859L56.1379 98.9591C56.0205 98.8809 56.0336 98.7505 56.1379 98.6722L57.6256 97.8115C57.7024 97.7725 57.7873 97.7522 57.8735 97.7522C57.9597 97.7522 58.0446 97.7725 58.1214 97.8115" fill="#3A2C6D"/>
<path d="M55.9543 96.5466L57.5071 97.4465C57.6376 97.5247 57.6246 97.6552 57.5071 97.7334L55.9543 98.6463C55.8774 98.6853 55.7925 98.7056 55.7063 98.7056C55.6202 98.7056 55.5352 98.6853 55.4584 98.6463L53.9055 97.7595C53.775 97.6812 53.7881 97.5508 53.9055 97.4726L55.3801 96.6118C55.458 96.5765 55.5425 96.5583 55.628 96.5583C55.7136 96.5583 55.7981 96.5765 55.876 96.6118" fill="#3A2C6D"/>
<path d="M53.723 95.2816L55.2758 96.1815C55.3933 96.2597 55.3802 96.3771 55.2758 96.4684L53.7882 97.3161C53.7121 97.3572 53.6269 97.3787 53.5403 97.3787C53.4537 97.3787 53.3685 97.3572 53.2924 97.3161L51.7395 96.4162C51.6221 96.351 51.6351 96.2206 51.7395 96.1293L53.2271 95.2816C53.3042 95.2436 53.3891 95.2239 53.4751 95.2239C53.561 95.2239 53.6459 95.2436 53.723 95.2816Z" fill="#3A2C6D"/>
<path d="M51.5166 94.0165L53.0695 94.9163C53.2 94.9815 53.1869 95.112 53.0695 95.2033L51.5949 96.051C51.5178 96.0889 51.4329 96.1087 51.347 96.1087C51.261 96.1087 51.1762 96.0889 51.099 96.051L49.5462 95.1511C49.4157 95.0729 49.4287 94.9555 49.5462 94.8642L51.0207 94.0165C51.0969 93.9754 51.1821 93.9539 51.2687 93.9539C51.3552 93.9539 51.4404 93.9754 51.5166 94.0165Z" fill="#3A2C6D"/>
<path d="M49.3246 92.7514L50.8774 93.6382C50.9949 93.7165 50.9818 93.8469 50.8774 93.9251L49.3898 94.7859C49.313 94.8248 49.228 94.8451 49.1419 94.8451C49.0557 94.8451 48.9708 94.8248 48.8939 94.7859L47.3411 93.899C47.2236 93.8208 47.2367 93.6904 47.3411 93.6121L48.8287 92.7514C48.9055 92.7124 48.9905 92.6921 49.0766 92.6921C49.1628 92.6921 49.2477 92.7124 49.3246 92.7514Z" fill="#3A2C6D"/>
<path d="M46.0635 90.8212L48.6733 92.321C48.8038 92.3992 48.7908 92.5297 48.6733 92.6079L47.1988 93.4687C47.1219 93.5076 47.037 93.5279 46.9508 93.5279C46.8647 93.5279 46.7797 93.5076 46.7029 93.4687L44.093 91.9689C43.9625 91.8906 43.9756 91.7602 44.093 91.682L45.5807 90.8212C45.6575 90.7823 45.7424 90.762 45.8286 90.762C45.9147 90.762 45.9997 90.7823 46.0765 90.8212" fill="#3A2C6D"/>
<path d="M74.5752 104.854L76.1281 105.754C76.2585 105.832 76.2455 105.963 76.1281 106.041L74.6535 106.902C74.5767 106.94 74.4917 106.961 74.4056 106.961C74.3194 106.961 74.2345 106.94 74.1576 106.902L72.6048 106.015C72.4743 105.936 72.4873 105.806 72.6048 105.728L74.0793 104.867C74.1572 104.832 74.2417 104.813 74.3273 104.813C74.4128 104.813 74.4973 104.832 74.5752 104.867" fill="#3A2C6D"/>
<path d="M72.3728 103.589L73.9257 104.489C74.0561 104.554 74.0431 104.685 73.9257 104.776L72.438 105.624C72.3609 105.661 72.2761 105.681 72.1901 105.681C72.1041 105.681 72.0193 105.661 71.9422 105.624L70.311 104.75C70.1805 104.671 70.2066 104.554 70.311 104.463L71.7856 103.615C71.8617 103.574 71.9469 103.552 72.0335 103.552C72.1201 103.552 72.2053 103.574 72.2814 103.615" fill="#3A2C6D"/>
<path d="M70.1775 102.324L71.7173 103.211C71.8478 103.289 71.8347 103.419 71.7173 103.498L70.2296 104.358C70.1528 104.397 70.0679 104.418 69.9817 104.418C69.8956 104.418 69.8106 104.397 69.7338 104.358L68.1809 103.472C68.0635 103.393 68.0765 103.263 68.1809 103.185L69.6685 102.324C69.7454 102.285 69.8303 102.265 69.9165 102.265C70.0026 102.265 70.0876 102.285 70.1644 102.324" fill="#3A2C6D"/>
<path d="M67.973 101.046L69.5259 101.946C69.6433 102.011 69.6302 102.141 69.5259 102.233L68.0382 103.08C67.9611 103.118 67.8763 103.138 67.7903 103.138C67.7043 103.138 67.6195 103.118 67.5424 103.08L65.9895 102.18C65.8721 102.18 65.8851 101.985 65.9895 101.893L67.4771 101.046C67.5543 101.008 67.6391 100.988 67.7251 100.988C67.811 100.988 67.8959 101.008 67.973 101.046Z" fill="#3A2C6D"/>
<path d="M65.7802 99.7809L67.3331 100.681C67.4635 100.759 67.4505 100.889 67.3331 100.968L65.8454 101.828C65.7686 101.867 65.6837 101.888 65.5975 101.888C65.5114 101.888 65.4264 101.867 65.3496 101.828L63.7837 100.942C63.6532 100.942 63.6793 100.746 63.7837 100.668L65.2582 99.807C65.3361 99.7717 65.4206 99.7534 65.5062 99.7534C65.5917 99.7534 65.6762 99.7717 65.7541 99.807" fill="#3A2C6D"/>
<path d="M63.5746 98.5158L65.1274 99.4157C65.2579 99.4157 65.2448 99.6113 65.1274 99.7026L63.6398 100.55C63.5627 100.588 63.4778 100.608 63.3919 100.608C63.3059 100.608 63.2211 100.588 63.1439 100.55L61.5911 99.6504C61.4736 99.5722 61.4867 99.4548 61.5911 99.3635L63.0787 98.5158C63.1525 98.4747 63.2356 98.4531 63.3201 98.4531C63.4046 98.4531 63.4877 98.4747 63.5615 98.5158" fill="#3A2C6D"/>
<path d="M61.3832 97.2506L62.936 98.1375C63.0535 98.2157 63.0404 98.3462 62.936 98.4244L61.4484 99.2851C61.3716 99.3241 61.2866 99.3444 61.2005 99.3444C61.1143 99.3444 61.0294 99.3241 60.9525 99.2851L59.3997 98.3983C59.2822 98.3201 59.2953 98.1896 59.3997 98.1114L60.8873 97.2506C60.9641 97.2117 61.0491 97.1914 61.1352 97.1914C61.2214 97.1914 61.3063 97.2117 61.3832 97.2506Z" fill="#3A2C6D"/>
<path d="M59.1768 96.0379L60.7296 96.9378C60.8601 97.003 60.834 97.1334 60.7296 97.2247L59.255 98.0724C59.1779 98.1104 59.0931 98.1301 59.0071 98.1301C58.9211 98.1301 58.8363 98.1104 58.7592 98.0724L57.2063 97.1726C57.0758 97.0943 57.0889 96.9769 57.2063 96.8856L58.6939 96.0379C58.7701 95.9969 58.8553 95.9753 58.9419 95.9753C59.0284 95.9753 59.1136 95.9969 59.1898 96.0379" fill="#3A2C6D"/>
<path d="M56.9736 94.7338L58.5265 95.6206C58.657 95.6989 58.6439 95.8293 58.5265 95.9075L57.0519 96.7683C56.9751 96.8072 56.8901 96.8276 56.804 96.8276C56.7178 96.8276 56.6329 96.8072 56.5561 96.7683L55.0032 95.8815C54.8727 95.8032 54.8858 95.6728 55.0032 95.5946L56.4778 94.7338C56.5546 94.6949 56.6395 94.6746 56.7257 94.6746C56.8119 94.6746 56.8968 94.6949 56.9736 94.7338Z" fill="#3A2C6D"/>
<path d="M54.7671 93.4295L56.32 94.3294C56.4505 94.4077 56.4374 94.525 56.32 94.6163L54.8324 95.464C54.7562 95.5051 54.671 95.5266 54.5845 95.5266C54.4979 95.5266 54.4127 95.5051 54.3365 95.464L52.7837 94.5641C52.6532 94.5641 52.6793 94.3685 52.7837 94.2772L54.2582 93.4295C54.3354 93.3916 54.4202 93.3718 54.5062 93.3718C54.5921 93.3718 54.677 93.3916 54.7541 93.4295" fill="#3A2C6D"/>
<path d="M52.5628 92.1255L54.1157 93.0124C54.2462 93.0906 54.2331 93.221 54.1157 93.2993L52.6281 94.16C52.5512 94.199 52.4663 94.2193 52.3801 94.2193C52.294 94.2193 52.209 94.199 52.1322 94.16L50.5794 93.2732C50.4619 93.195 50.475 93.0645 50.5794 92.9863L52.0409 92.1255C52.1154 92.0867 52.1982 92.0664 52.2823 92.0664C52.3663 92.0664 52.4492 92.0867 52.5237 92.1255" fill="#3A2C6D"/>
<path d="M50.3714 90.8866L51.9243 91.7864C52.0417 91.8647 52.0287 91.9821 51.9243 92.0733L50.4367 92.921C50.3605 92.9621 50.2753 92.9836 50.1887 92.9836C50.1022 92.9836 50.017 92.9621 49.9408 92.921L48.3879 92.0212C48.2705 91.956 48.2836 91.8255 48.3879 91.7343L49.8756 90.8866C49.9527 90.8486 50.0375 90.8289 50.1235 90.8289C50.2095 90.8289 50.2943 90.8486 50.3714 90.8866Z" fill="#3A2C6D"/>
<path d="M76.833 106.132L79.4429 107.645C79.5733 107.645 79.5603 107.841 79.4429 107.919L77.9683 108.78C77.8904 108.815 77.8059 108.833 77.7204 108.833C77.6348 108.833 77.5503 108.815 77.4724 108.78L74.8626 107.267C74.7321 107.189 74.7451 107.071 74.8626 106.98L76.3502 106.132C76.4264 106.091 76.5116 106.07 76.5981 106.07C76.6847 106.07 76.7699 106.091 76.8461 106.132" fill="#3A2C6D"/>
<path d="M46.1694 90.8212L47.7223 91.7211C47.7921 91.7599 47.8707 91.7803 47.9507 91.7803C48.0306 91.7803 48.1092 91.7599 48.179 91.7211L49.7449 90.8212C49.8754 90.743 49.8754 90.6256 49.7449 90.5474H49.6144C49.5883 90.5388 49.5656 90.5222 49.5495 90.5C49.5334 90.4777 49.5247 90.4509 49.5247 90.4235C49.5247 90.396 49.5334 90.3692 49.5495 90.347C49.5656 90.3247 49.5883 90.3082 49.6144 90.2996L51.2717 89.3475C51.4022 89.2693 51.4022 89.1519 51.2717 89.0737L50.293 88.4998C50.2198 88.4641 50.1395 88.4456 50.0581 88.4456C49.9767 88.4456 49.8964 88.4641 49.8232 88.4998L48.2834 89.3867L47.9572 89.5692L47.7223 89.7127L47.5005 89.8431L46.1955 90.6126C46.065 90.6908 46.065 90.8082 46.1955 90.8734" fill="#3A2C6D"/>
<path d="M84.2203 103.054L85.7731 103.941C85.9036 104.019 85.8906 104.15 85.7731 104.228L84.2855 105.089C84.2087 105.128 84.1237 105.148 84.0376 105.148C83.9514 105.148 83.8665 105.128 83.7897 105.089L82.2368 104.202C82.1063 104.124 82.1324 103.993 82.2368 103.915L83.7114 103.054C83.7882 103.015 83.8731 102.995 83.9593 102.995C84.0454 102.995 84.1304 103.015 84.2072 103.054" fill="#3A2C6D"/>
<path d="M82.055 101.789L83.6079 102.676C83.7384 102.754 83.7254 102.885 83.6079 102.963L82.055 103.863C81.9782 103.902 81.8933 103.922 81.8071 103.922C81.721 103.922 81.636 103.902 81.5592 103.863L80.0063 102.976C79.8758 102.898 79.9019 102.767 80.0063 102.689L81.4809 101.828C81.5577 101.789 81.6427 101.769 81.7288 101.769C81.815 101.769 81.8999 101.789 81.9768 101.828" fill="#3A2C6D"/>
<path d="M79.8336 100.524L81.3864 101.411C81.5169 101.489 81.5039 101.62 81.3864 101.698L79.8988 102.559C79.822 102.598 79.737 102.618 79.6509 102.618C79.5647 102.618 79.4798 102.598 79.4029 102.559L77.8501 101.672C77.7196 101.594 77.7457 101.463 77.8501 101.385L79.3246 100.524C79.4015 100.485 79.4864 100.465 79.5726 100.465C79.6587 100.465 79.7437 100.485 79.8205 100.524" fill="#3A2C6D"/>
<path d="M61.1734 89.7388L62.7263 90.6386C62.8567 90.7169 62.8437 90.8343 62.7263 90.9256L61.2386 91.7863C61.1618 91.8253 61.0769 91.8456 60.9907 91.8456C60.9046 91.8456 60.8196 91.8253 60.7428 91.7863L59.1899 90.8864C59.0594 90.8212 59.0855 90.6908 59.1899 90.5995L60.6645 89.7518C60.7416 89.7138 60.8264 89.6941 60.9124 89.6941C60.9984 89.6941 61.0832 89.7138 61.1603 89.7518" fill="#3A2C6D"/>
<path d="M58.9703 88.4739L60.5231 89.3737C60.6536 89.452 60.6406 89.5694 60.5231 89.6607L59.0355 90.5214C58.9587 90.5604 58.8737 90.5806 58.7876 90.5806C58.7014 90.5806 58.6165 90.5604 58.5396 90.5214L56.9868 89.6215C56.8563 89.5563 56.8824 89.4259 56.9868 89.3477L58.4613 88.4869C58.5385 88.449 58.6233 88.4292 58.7093 88.4292C58.7953 88.4292 58.8801 88.449 58.9572 88.4869" fill="#3A2C6D"/>
<path d="M56.7789 87.2087L58.3317 88.1086C58.4622 88.1869 58.4492 88.3042 58.3317 88.3955L56.8441 89.2563C56.7673 89.2952 56.6823 89.3155 56.5962 89.3155C56.51 89.3155 56.4251 89.2952 56.3482 89.2563L54.7954 88.3564C54.6649 88.2912 54.691 88.1608 54.7954 88.0695L56.27 87.2218C56.3471 87.1838 56.4319 87.1641 56.5179 87.1641C56.6039 87.1641 56.6887 87.1838 56.7658 87.2218" fill="#3A2C6D"/>
<path d="M54.65 85.9438L56.2028 86.8437C56.3333 86.922 56.3203 87.0393 56.2028 87.1306L54.7152 87.9914C54.6384 88.0303 54.5534 88.0506 54.4673 88.0506C54.3811 88.0506 54.2962 88.0303 54.2193 87.9914L52.6665 87.0915C52.536 87.0263 52.5621 86.8959 52.6665 86.8046L54.141 85.9569C54.2182 85.9189 54.303 85.8992 54.389 85.8992C54.475 85.8992 54.5598 85.9189 54.6369 85.9569" fill="#3A2C6D"/>
<path d="M77.0804 98.9202L79.1944 100.146C79.3249 100.224 79.3118 100.355 79.1944 100.433L77.7068 101.294C77.63 101.333 77.545 101.353 77.4589 101.353C77.3727 101.353 77.2878 101.333 77.2109 101.294L75.0969 100.068C74.9665 100.068 74.9795 99.8722 75.0969 99.794L76.5846 98.9332C76.6624 98.8979 76.747 98.8796 76.8325 98.8796C76.918 98.8796 77.0025 98.8979 77.0804 98.9332" fill="#3A2C6D"/>
<path d="M63.3557 91.0039L65.4828 92.2298C65.6002 92.308 65.5872 92.4254 65.4828 92.5167L63.9952 93.3774C63.9183 93.4164 63.8334 93.4367 63.7472 93.4367C63.6611 93.4367 63.5761 93.4164 63.4993 93.3774L61.3462 92.1254C61.2157 92.0602 61.2418 91.9298 61.3462 91.8385L62.8207 90.9908C62.8979 90.9529 62.9827 90.9331 63.0687 90.9331C63.1546 90.9331 63.2395 90.9529 63.3166 90.9908" fill="#3A2C6D"/>
<path d="M66.1221 92.595L76.444 98.5549C76.5745 98.6332 76.5615 98.7636 76.444 98.8419L74.9695 99.7026C74.8926 99.7416 74.8077 99.7619 74.7215 99.7619C74.6354 99.7619 74.5504 99.7416 74.4736 99.7026L64.1516 93.7426C64.0211 93.6774 64.0342 93.547 64.1516 93.4557L65.6392 92.608C65.7164 92.57 65.8012 92.5503 65.8872 92.5503C65.9732 92.5503 66.058 92.57 66.1351 92.608" fill="#3A2C6D"/>
<path d="M76.1175 103.289L77.6704 104.176C77.7878 104.254 77.7748 104.385 77.6704 104.463L76.1828 105.324C76.1049 105.359 76.0204 105.377 75.9348 105.377C75.8493 105.377 75.7648 105.359 75.6869 105.324L74.134 104.424C74.0166 104.345 74.0296 104.215 74.134 104.137L75.6217 103.276C75.6985 103.237 75.7834 103.217 75.8696 103.217C75.9557 103.217 76.0407 103.237 76.1175 103.276" fill="#3A2C6D"/>
<path d="M73.9117 102.024L75.4645 102.911C75.595 102.989 75.582 103.12 75.4645 103.198L73.9769 104.059C73.9001 104.098 73.8151 104.118 73.729 104.118C73.6428 104.118 73.5579 104.098 73.4811 104.059L71.9282 103.172C71.7977 103.094 71.8238 102.963 71.9282 102.885L73.4028 102.024C73.4796 101.985 73.5645 101.965 73.6507 101.965C73.7369 101.965 73.8218 101.985 73.8986 102.024" fill="#3A2C6D"/>
<path d="M71.7197 100.746L73.2726 101.646C73.4031 101.724 73.377 101.841 73.2726 101.933L71.798 102.793C71.7212 102.832 71.6362 102.853 71.5501 102.853C71.4639 102.853 71.379 102.832 71.3021 102.793L69.7493 101.894C69.6188 101.828 69.6318 101.698 69.7493 101.607L71.2369 100.759C71.314 100.721 71.3989 100.701 71.4848 100.701C71.5708 100.701 71.6556 100.721 71.7328 100.759" fill="#3A2C6D"/>
<path d="M69.5277 99.4808L71.0805 100.381C71.198 100.459 71.1849 100.576 71.0805 100.668L69.5929 101.515C69.5167 101.556 69.4315 101.578 69.345 101.578C69.2584 101.578 69.1732 101.556 69.097 101.515L67.5442 100.615C67.4268 100.55 67.4398 100.42 67.5442 100.328L69.0318 99.4808C69.1089 99.4428 69.1938 99.4231 69.2797 99.4231C69.3657 99.4231 69.4505 99.4428 69.5277 99.4808Z" fill="#3A2C6D"/>
<path d="M67.3218 98.2159L68.8747 99.1158C69.0052 99.1158 68.9921 99.3114 68.8747 99.4027L67.3871 100.25C67.31 100.288 67.2251 100.308 67.1392 100.308C67.0532 100.308 66.9683 100.288 66.8912 100.25L65.3384 99.3505C65.2079 99.2723 65.234 99.1549 65.3384 99.0636L66.8129 98.2159C66.8891 98.1748 66.9743 98.1533 67.0609 98.1533C67.1474 98.1533 67.2326 98.1748 67.3088 98.2159" fill="#3A2C6D"/>
<path d="M65.0908 96.9507L66.6437 97.8506C66.7742 97.9158 66.7481 98.0462 66.6437 98.1245L65.1691 98.9852C65.0912 99.0205 65.0067 99.0387 64.9212 99.0387C64.8357 99.0387 64.7511 99.0205 64.6732 98.9852L63.1204 98.0853C62.9899 98.0071 63.0029 97.8767 63.1204 97.7984L64.608 96.9377C64.6848 96.8987 64.7698 96.8784 64.8559 96.8784C64.9421 96.8784 65.027 96.8987 65.1039 96.9377" fill="#3A2C6D"/>
<path d="M62.9378 95.6857L64.4907 96.5726C64.6081 96.6508 64.5951 96.7812 64.4907 96.8595L63.0031 97.7202C62.9262 97.7592 62.8413 97.7795 62.7551 97.7795C62.669 97.7795 62.584 97.7592 62.5072 97.7202L60.9544 96.8334C60.8369 96.7551 60.85 96.6247 60.9544 96.5465L62.442 95.6857C62.5188 95.6468 62.6037 95.6265 62.6899 95.6265C62.7761 95.6265 62.861 95.6468 62.9378 95.6857Z" fill="#3A2C6D"/>
<path d="M60.732 94.4077L62.2849 95.3076C62.4153 95.3858 62.4023 95.5162 62.2849 95.5945L60.7972 96.4552C60.7204 96.4942 60.6355 96.5145 60.5493 96.5145C60.4631 96.5145 60.3782 96.4942 60.3014 96.4552L58.7485 95.5554C58.618 95.5554 58.6441 95.3597 58.7485 95.2815L60.2231 94.4207C60.301 94.3854 60.3855 94.3672 60.471 94.3672C60.5565 94.3672 60.6411 94.3854 60.7189 94.4207" fill="#3A2C6D"/>
<path d="M58.5635 93.1427L60.1163 94.0425C60.2468 94.1208 60.2338 94.2382 60.1163 94.3295L58.6418 95.1772C58.5656 95.2182 58.4804 95.2398 58.3938 95.2398C58.3073 95.2398 58.2221 95.2182 58.1459 95.1772L56.593 94.2773C56.4625 94.2773 56.4756 94.0817 56.593 93.9904L58.0676 93.1427C58.1447 93.1047 58.2296 93.085 58.3155 93.085C58.4015 93.085 58.4863 93.1047 58.5635 93.1427Z" fill="#3A2C6D"/>
<path d="M56.348 91.8775L57.9009 92.7774C58.0183 92.8426 58.0052 92.973 57.9009 93.0643L56.4132 93.912C56.3371 93.9531 56.2519 93.9746 56.1653 93.9746C56.0787 93.9746 55.9935 93.9531 55.9174 93.912L54.3645 93.0121C54.2471 93.0121 54.2601 92.8165 54.3645 92.7252L55.8521 91.8775C55.9293 91.8396 56.0141 91.8198 56.1001 91.8198C56.186 91.8198 56.2709 91.8396 56.348 91.8775Z" fill="#3A2C6D"/>
<path d="M54.1421 90.6127L55.695 91.5125C55.8255 91.5777 55.8124 91.7082 55.695 91.7994L54.2074 92.6471C54.1303 92.6851 54.0454 92.7049 53.9595 92.7049C53.8735 92.7049 53.7886 92.6851 53.7115 92.6471L52.1587 91.7473C52.0282 91.669 52.0543 91.5517 52.1587 91.4604L53.6332 90.6127C53.7094 90.5716 53.7946 90.55 53.8812 90.55C53.9677 90.55 54.0529 90.5716 54.1291 90.6127" fill="#3A2C6D"/>
<path d="M51.9502 89.3476L53.5031 90.2344C53.6336 90.3127 53.6205 90.4431 53.5031 90.5213L52.0285 91.382C51.9517 91.421 51.8667 91.4413 51.7806 91.4413C51.6944 91.4413 51.6095 91.421 51.5326 91.382L49.9798 90.4952C49.8493 90.417 49.8623 90.2866 49.9798 90.2083L51.4543 89.3476C51.5312 89.3086 51.6161 89.2883 51.7023 89.2883C51.7884 89.2883 51.8734 89.3086 51.9502 89.3476Z" fill="#3A2C6D"/>
<path d="M78.3096 104.554L81.5197 106.471C81.6502 106.549 81.6371 106.667 81.5197 106.758L80.0451 107.606C79.9689 107.647 79.8837 107.668 79.7972 107.668C79.7106 107.668 79.6254 107.647 79.5492 107.606L76.3391 105.754C76.2086 105.676 76.2217 105.545 76.3391 105.467L77.8267 104.606C77.9036 104.567 77.9885 104.547 78.0747 104.547C78.1608 104.547 78.2458 104.567 78.3226 104.606" fill="#3A2C6D"/>
<path d="M79.3272 102.689L80.8801 103.576C81.0106 103.654 80.9975 103.785 80.8801 103.863L79.3925 104.724C79.3156 104.763 79.2307 104.783 79.1445 104.783C79.0584 104.783 78.9734 104.763 78.8966 104.724L77.3176 103.863C77.2002 103.785 77.2132 103.654 77.3176 103.576L78.8052 102.715C78.8798 102.676 78.9626 102.656 79.0467 102.656C79.1307 102.656 79.2135 102.676 79.2881 102.715" fill="#3A2C6D"/>
<path d="M77.1339 101.424L78.6867 102.311C78.8172 102.389 78.8042 102.52 78.6867 102.598L77.2122 103.459C77.1353 103.498 77.0504 103.518 76.9642 103.518C76.8781 103.518 76.7931 103.498 76.7163 103.459L75.1243 102.559C74.9938 102.48 75.0068 102.35 75.1243 102.272L76.5989 101.411C76.6757 101.372 76.7606 101.352 76.8468 101.352C76.9329 101.352 77.0179 101.372 77.0947 101.411" fill="#3A2C6D"/>
<path d="M74.9399 100.146L76.4927 101.046C76.6232 101.124 76.5971 101.242 76.4927 101.333L75.0182 102.194C74.9413 102.233 74.8564 102.253 74.7702 102.253C74.6841 102.253 74.5991 102.233 74.5223 102.194L72.9173 101.255C72.7868 101.255 72.7998 101.059 72.9173 100.968L74.4049 100.12C74.482 100.082 74.5668 100.062 74.6528 100.062C74.7388 100.062 74.8236 100.082 74.9007 100.12" fill="#3A2C6D"/>
<path d="M72.7503 98.881L74.3032 99.7808C74.4206 99.7808 74.4076 99.9764 74.3032 100.068L72.8156 100.915C72.7394 100.957 72.6542 100.978 72.5676 100.978C72.4811 100.978 72.3959 100.957 72.3197 100.915L70.7669 100.016C70.6494 100.016 70.6625 99.82 70.7669 99.7287L72.2545 98.881C72.3316 98.843 72.4164 98.8232 72.5024 98.8232C72.5884 98.8232 72.6732 98.843 72.7503 98.881Z" fill="#3A2C6D"/>
<path d="M70.5445 97.6158L72.0974 98.5157C72.2279 98.5157 72.2148 98.7113 72.0974 98.8026L70.6097 99.6503C70.5326 99.6883 70.4478 99.708 70.3618 99.708C70.2758 99.708 70.191 99.6883 70.1139 99.6503L68.561 98.7505C68.4305 98.6722 68.4566 98.5548 68.561 98.4635L70.0356 97.6158C70.1118 97.5748 70.197 97.5532 70.2835 97.5532C70.3701 97.5532 70.4553 97.5748 70.5315 97.6158" fill="#3A2C6D"/>
<path d="M68.3512 96.3509L69.9041 97.2508C70.0346 97.2508 70.0085 97.4464 69.9041 97.5247L68.4295 98.3854C68.3516 98.4207 68.2671 98.439 68.1816 98.439C68.096 98.439 68.0115 98.4207 67.9336 98.3854L66.3938 97.5116C66.2633 97.4334 66.2764 97.3029 66.3938 97.2247L67.8814 96.3639C67.9583 96.325 68.0432 96.3047 68.1294 96.3047C68.2155 96.3047 68.3005 96.325 68.3773 96.3639" fill="#3A2C6D"/>
<path d="M66.1579 95.0859L67.6977 96.038C67.8152 96.1162 67.8021 96.2466 67.6977 96.3249L66.2101 97.1856C66.1333 97.2246 66.0483 97.2449 65.9622 97.2449C65.876 97.2449 65.7911 97.2246 65.7142 97.1856L64.1614 96.2988C64.0439 96.2205 64.057 96.0901 64.1614 96.0119L65.649 95.1511C65.7258 95.1122 65.8108 95.0919 65.8969 95.0919C65.9831 95.0919 66.068 95.1122 66.1449 95.1511" fill="#3A2C6D"/>
<path d="M63.9535 93.8209L65.5063 94.7077C65.6368 94.7859 65.6238 94.9163 65.5063 94.9946L64.0187 95.8553C63.9419 95.8943 63.8569 95.9146 63.7708 95.9146C63.6846 95.9146 63.5997 95.8943 63.5228 95.8553L61.97 94.9685C61.8525 94.8903 61.8656 94.7599 61.97 94.6816L63.4576 93.8209C63.5321 93.782 63.6149 93.7617 63.699 93.7617C63.7831 93.7617 63.8659 93.782 63.9404 93.8209" fill="#3A2C6D"/>
<path d="M61.7627 92.5427L63.3155 93.4426C63.446 93.5208 63.433 93.6382 63.3155 93.7295L61.841 94.5902C61.7641 94.6292 61.6792 94.6495 61.5931 94.6495C61.5069 94.6495 61.422 94.6292 61.3451 94.5902L59.7923 93.6904C59.6618 93.6252 59.6748 93.4947 59.7923 93.4034L61.2668 92.5558C61.344 92.5178 61.4288 92.498 61.5148 92.498C61.6007 92.498 61.6856 92.5178 61.7627 92.5558" fill="#3A2C6D"/>
<path d="M59.5699 91.2779L61.1749 92.1255C61.3054 92.2038 61.2793 92.3212 61.1749 92.4125L59.7004 93.2602C59.6242 93.3012 59.539 93.3228 59.4524 93.3228C59.3659 93.3228 59.2807 93.3012 59.2045 93.2602L57.6516 92.3603C57.5211 92.2951 57.5342 92.1647 57.6516 92.0734L59.1392 91.2257C59.2164 91.1877 59.3012 91.168 59.3872 91.168C59.4732 91.168 59.558 91.1877 59.6351 91.2257" fill="#3A2C6D"/>
<path d="M57.3792 90.0128L58.9321 90.9127C59.0495 90.9779 59.0365 91.1083 58.9321 91.1996L57.4445 92.0473C57.3674 92.0853 57.2825 92.105 57.1966 92.105C57.1106 92.105 57.0257 92.0853 56.9486 92.0473L55.3958 91.1474C55.2783 91.0692 55.2914 90.9518 55.3958 90.8605L56.8834 90.0128C56.9595 89.9717 57.0447 89.9502 57.1313 89.9502C57.2179 89.9502 57.3031 89.9717 57.3792 90.0128Z" fill="#3A2C6D"/>
<path d="M52.4593 87.1826L56.7264 89.6475C56.8569 89.7127 56.8439 89.8431 56.7264 89.9344L55.2388 90.7821C55.1617 90.8201 55.0769 90.8398 54.9909 90.8398C54.9049 90.8398 54.8201 90.8201 54.743 90.7821L50.4759 88.3173C50.3454 88.239 50.3584 88.1086 50.4759 88.0303L51.9635 87.1696C52.0403 87.1306 52.1252 87.1104 52.2114 87.1104C52.2976 87.1104 52.3825 87.1306 52.4593 87.1696" fill="#3A2C6D"/>
<path d="M81.5323 103.954L83.6463 105.18C83.7768 105.245 83.7637 105.376 83.6463 105.454L82.1717 106.315C82.0938 106.35 82.0093 106.368 81.9238 106.368C81.8383 106.368 81.7537 106.35 81.6758 106.315L79.5227 105.167C79.3922 105.089 79.4053 104.958 79.5227 104.88L81.0103 104.019C81.0872 103.98 81.1721 103.96 81.2583 103.96C81.3444 103.96 81.4294 103.98 81.5062 104.019" fill="#3A2C6D"/>
<path d="M43.8581 92.1255L75.0458 110.123C75.1763 110.201 75.1632 110.318 75.0458 110.41L74.302 110.84C74.2274 110.879 74.1446 110.899 74.0605 110.899C73.9765 110.899 73.8937 110.879 73.8191 110.84L42.6184 92.8428C42.501 92.8428 42.514 92.6471 42.6184 92.5559L43.3622 92.1385C43.4394 92.1006 43.5242 92.0808 43.6102 92.0808C43.6961 92.0808 43.781 92.1006 43.8581 92.1385" fill="#3A2C6D"/>
<path d="M80.7495 93.3123L80.5537 93.4297L75.1775 96.5336L65.6254 91.017L65.4297 90.9127L71.0017 87.6914L80.7495 93.3123Z" fill="#BFBFBF"/>
<path d="M80.5403 93.4296L75.177 96.5334L65.625 91.0169L71.0013 87.926L80.5403 93.4296Z" fill="#E5E5E5"/>
<path d="M96.067 100.55V101.033C96.0672 101.376 95.9768 101.714 95.805 102.012C95.6332 102.309 95.386 102.556 95.0883 102.728L76.1669 113.644C75.8665 113.814 75.527 113.904 75.1817 113.904C74.8363 113.904 74.4968 113.814 74.1964 113.644L39.9553 93.886C39.6566 93.7152 39.4087 93.4683 39.2367 93.1704C39.0648 92.8725 38.975 92.5344 38.9766 92.1906V91.708L75.1751 112.574L96.067 100.55Z" fill="#E5E5E5"/>
<path d="M75.1765 112.614V113.918C74.8347 113.918 74.4984 113.832 74.1978 113.67L39.9566 93.886C39.6564 93.7158 39.4066 93.4694 39.2324 93.1716C39.0582 92.8739 38.9659 92.5354 38.9648 92.1906V91.708L75.1765 112.614Z" fill="#E5E5E5"/>
<path d="M74.6272 112.901C74.3036 113.024 73.9566 113.074 73.6113 113.047C73.266 113.02 72.931 112.917 72.6307 112.744L38.533 93.0646C38.2376 92.8937 37.983 92.6604 37.7869 92.3811C37.5908 92.1019 37.458 91.7832 37.3977 91.4474L33.6657 69.1985C33.6531 69.0728 33.6531 68.9461 33.6657 68.8203C33.6641 68.2004 33.9081 67.6049 34.3442 67.1641L69.7859 87.6132C70.003 87.7417 70.1899 87.9154 70.334 88.1224C70.4781 88.3294 70.576 88.5649 70.6211 88.813L74.6272 112.901Z" fill="#F4F4F4"/>
<path d="M75.1774 112.614L74.9426 112.744L74.6294 112.901L70.5972 88.8129C70.5521 88.5648 70.4541 88.3292 70.3101 88.1222C70.166 87.9152 69.9791 87.7416 69.762 87.613L34.3203 67.1639C34.4622 67.0281 34.62 66.9099 34.7901 66.8118L70.3101 87.3C70.5294 87.4258 70.7181 87.5987 70.8625 87.8062C71.0069 88.0137 71.1035 88.2506 71.1452 88.4999L75.1774 112.614Z" fill="#E5E5E5"/>
</g>
<defs>
<clipPath id="clip0_2579_5203">
<rect width="651" height="410" fill="white"/>
</clipPath>
</defs>
</svg>
