<svg width="715" height="730" viewBox="0 0 715 730" fill="none" xmlns="http://www.w3.org/2000/svg">
<path opacity="0.15" d="M105.122 530.783C163.179 530.783 210.244 503.636 210.244 470.149C210.244 436.662 163.179 409.515 105.122 409.515C47.0648 409.515 0 436.662 0 470.149C0 503.636 47.0648 530.783 105.122 530.783Z" fill="#D6D8E5"/>
<path opacity="0.5" d="M103.909 497.48C136.291 497.48 162.542 482.342 162.542 463.667C162.542 444.992 136.291 429.853 103.909 429.853C71.5265 429.853 45.2754 444.992 45.2754 463.667C45.2754 482.342 71.5265 497.48 103.909 497.48Z" fill="#EDEFF9"/>
<path d="M103.354 461.316C112.587 461.316 120.073 456.995 120.073 451.666C120.073 446.336 112.587 442.015 103.354 442.015C94.1201 442.015 86.6348 446.336 86.6348 451.666C86.6348 456.995 94.1201 461.316 103.354 461.316Z" fill="#EDEFF9"/>
<path d="M119.986 323.726H87.834V449.957H119.986V323.726Z" fill="#EDEFF9"/>
<path d="M86.2988 322.295C86.2988 322.295 87.1757 348.254 105.663 394.813C105.663 394.813 122.879 357.32 124.662 321.507C126.445 285.693 86.2988 322.295 86.2988 322.295Z" fill="#FFBC00"/>
<path d="M63.7199 224.563L20.9433 266.143L15.8574 320.441L67.5928 294.526L77.0045 228.3L63.7199 224.563Z" fill="#4478B0"/>
<path d="M147.607 224.563L190.369 266.143L195.469 320.441L143.544 292.73L134.322 228.3L147.607 224.563Z" fill="#4478B0"/>
<path d="M105.122 328.85C116.865 328.85 126.386 323.36 126.386 316.586C126.386 309.813 116.865 304.323 105.122 304.323C93.3777 304.323 83.8574 309.813 83.8574 316.586C83.8574 323.36 93.3777 328.85 105.122 328.85Z" fill="#424956"/>
<path d="M72.8828 304.322V293.285H137.289V304.731L72.8828 304.322Z" fill="#494949"/>
<path d="M105.122 322.908C122.928 322.908 137.362 314.581 137.362 304.308C137.362 294.035 122.928 285.708 105.122 285.708C87.317 285.708 72.8828 294.035 72.8828 304.308C72.8828 314.581 87.317 322.908 105.122 322.908Z" fill="#2B303F"/>
<path d="M105.02 310.25C126.748 310.25 144.362 300.092 144.362 287.562C144.362 275.031 126.748 264.873 105.02 264.873C83.2919 264.873 65.6777 275.031 65.6777 287.562C65.6777 300.092 83.2919 310.25 105.02 310.25Z" fill="#EDEFF9"/>
<path d="M147.504 247.149C147.504 248.974 147.504 250.77 147.504 252.507C147.504 253.967 147.504 255.427 147.504 256.887C147.504 258.858 147.401 260.741 147.328 262.581C147.328 264.873 147.168 267.049 147.051 269.136C146.934 271.224 146.831 273.268 146.685 275.152C146.086 283.401 146.101 289.474 145.078 291.854C139.51 304.863 120.672 297.694 111.377 293.022C107.942 291.299 105.677 289.883 105.677 289.883H104.829C104.829 289.883 102.14 291.343 98.1652 292.92C88.4173 296.862 71.0407 303.855 66.2179 291.81C65.3556 289.649 64.4934 282.51 63.9672 275.035C63.8357 273.166 63.7188 271.166 63.6019 269.034C63.485 266.903 63.4265 264.786 63.3388 262.493C63.3388 260.668 63.2365 258.785 63.1927 256.829C63.1927 255.369 63.1927 253.909 63.1927 252.449V247.09C62.9296 196.151 68.337 114.698 86.1959 79.935C91.3548 69.8756 97.5514 63.729 104.961 63.364H105.809C113.116 63.7436 119.385 69.861 124.559 79.8766C142.169 114.508 147.825 195.64 147.504 247.149Z" fill="#EDEFF9"/>
<path d="M105.224 199.115C113.433 199.115 120.087 192.467 120.087 184.267C120.087 176.066 113.433 169.418 105.224 169.418C97.0157 169.418 90.3613 176.066 90.3613 184.267C90.3613 192.467 97.0157 199.115 105.224 199.115Z" fill="#2B303F"/>
<path d="M105.224 201.29C101.854 201.29 98.5592 200.292 95.7569 198.421C92.9546 196.551 90.7705 193.892 89.4807 190.781C88.191 187.671 87.8535 184.248 88.511 180.946C89.1685 177.643 90.7915 174.61 93.1746 172.229C95.5578 169.848 98.5941 168.227 101.9 167.57C105.205 166.913 108.631 167.25 111.745 168.539C114.859 169.827 117.52 172.009 119.393 174.809C121.265 177.608 122.265 180.9 122.265 184.267C122.261 188.78 120.464 193.108 117.269 196.3C114.074 199.492 109.742 201.286 105.224 201.29ZM105.224 171.594C102.715 171.591 100.261 172.332 98.1725 173.723C96.0845 175.113 94.4563 177.091 93.4939 179.407C92.5316 181.722 92.2783 184.271 92.7661 186.73C93.2539 189.189 94.4609 191.449 96.2344 193.223C98.0079 194.996 100.268 196.205 102.729 196.695C105.19 197.185 107.742 196.935 110.061 195.976C112.379 195.017 114.361 193.393 115.756 191.309C117.151 189.224 117.895 186.774 117.895 184.267C117.891 180.909 116.555 177.69 114.18 175.315C111.805 172.94 108.585 171.602 105.224 171.594Z" fill="#424956"/>
<path d="M105.224 155.461C113.433 155.461 120.087 148.813 120.087 140.613C120.087 132.412 113.433 125.764 105.224 125.764C97.0157 125.764 90.3613 132.412 90.3613 140.613C90.3613 148.813 97.0157 155.461 105.224 155.461Z" fill="#2B303F"/>
<path d="M105.224 157.68C101.851 157.683 98.5537 156.687 95.7478 154.818C92.9418 152.949 90.7535 150.29 89.4595 147.179C88.1656 144.068 87.824 140.643 88.4781 137.338C89.1322 134.032 90.7525 130.995 93.1342 128.61C95.5158 126.224 98.552 124.598 101.859 123.936C105.166 123.274 108.595 123.606 111.713 124.891C114.83 126.176 117.497 128.355 119.375 131.153C121.253 133.952 122.259 137.243 122.265 140.613C122.268 145.133 120.476 149.47 117.28 152.67C114.085 155.87 109.749 157.672 105.224 157.68ZM105.224 127.984C102.714 127.981 100.259 128.722 98.1709 130.113C96.0826 131.505 94.4544 133.484 93.4924 135.8C92.5305 138.116 92.2781 140.666 92.7671 143.125C93.2561 145.585 94.4645 147.844 96.2395 149.617C98.0145 151.391 100.276 152.598 102.738 153.086C105.2 153.575 107.752 153.323 110.071 152.362C112.389 151.401 114.37 149.774 115.763 147.688C117.156 145.602 117.898 143.15 117.895 140.642C117.897 138.978 117.57 137.329 116.935 135.791C116.299 134.253 115.366 132.855 114.19 131.677C113.013 130.498 111.616 129.563 110.077 128.925C108.539 128.286 106.89 127.956 105.224 127.954V127.984Z" fill="#424956"/>
<path d="M147.504 276.509C147.504 278.334 147.504 280.13 147.504 281.882C146.043 286.7 142.068 291.314 135.608 295.022C118.86 304.673 91.7644 304.673 74.9431 295.022C68.4835 291.285 64.5229 286.656 63.0469 281.882V276.524C64.5083 281.43 68.4542 286.102 75.0015 289.883C91.7644 299.534 118.918 299.534 135.666 289.883C142.082 286.058 146.145 281.4 147.504 276.509Z" fill="#4478B0"/>
<path d="M147.373 285.007C147.373 286.963 147.271 288.861 147.198 290.686C145.561 295.241 141.674 299.577 135.506 303.111C118.758 312.776 91.663 312.776 74.8417 303.111C68.6889 299.548 64.8015 295.183 63.15 290.598C63.15 288.773 63.0477 286.89 63.0039 284.948C64.4654 289.708 68.4551 294.234 74.827 297.913C91.5899 307.578 118.744 307.578 135.492 297.913C141.893 294.248 145.839 289.737 147.373 285.007Z" fill="#4478B0"/>
<path d="M146.92 269.925C145.151 274.203 141.351 278.276 135.549 281.605C118.801 291.255 91.7059 291.255 74.8846 281.605C69.0388 278.218 65.2391 274.13 63.4707 269.808C63.5876 271.94 63.7045 273.94 63.8361 275.809C65.7213 279.838 69.4042 283.634 74.8846 286.802C82.0329 290.694 89.9196 293.042 98.034 293.694C102.407 294.118 106.808 294.153 111.187 293.796C119.701 293.258 127.995 290.871 135.491 286.802C140.928 283.663 144.596 279.911 146.496 275.926L146.92 269.925Z" fill="#4478B0"/>
<path d="M124.297 79.9058C111.797 83.7387 98.4335 83.7387 85.9336 79.9058C91.0925 69.8464 97.2891 63.6998 104.699 63.3348H105.546C112.927 63.7728 119.123 69.8902 124.297 79.9058Z" fill="#4478B0"/>
<path d="M109.302 224.679H102.01V320.324H109.302V224.679Z" fill="#4478B0"/>
<path opacity="0.4" d="M455.096 557.983L370.331 509.087C364.208 505.554 364.983 499.393 372.041 495.32L426.963 463.652L533.868 525.308L478.946 556.99C471.873 561.063 461.204 561.501 455.096 557.983Z" fill="#D6D8E5"/>
<path d="M461.279 554.347L376.515 505.437C370.406 501.919 371.166 495.758 378.225 491.684L433.161 460.017L540.066 521.673L485.203 553.34C478.071 557.428 467.388 557.866 461.279 554.347Z" fill="#B1B4C4"/>
<path d="M540.051 521.673V518.446L535.111 521.293L540.051 521.673Z" fill="#B1B4C4"/>
<path d="M372.379 499.612V496.327L377.45 498.429L372.379 499.612Z" fill="#B1B4C4"/>
<path d="M461.279 551.106L376.515 502.211C370.406 498.678 371.166 492.531 378.225 488.458L433.161 456.776L540.066 518.446L485.203 550.113C478.071 554.187 467.388 554.639 461.279 551.106Z" fill="#D6D8E5"/>
<path d="M433.423 456.922L420.197 413.063L528.271 474.996L540.051 518.446L433.423 456.922Z" fill="#9EA1AF"/>
<path d="M536.923 520.242L540.051 518.446L535.389 514.723L536.923 520.242Z" fill="#9EA1AF"/>
<path d="M430.017 458.571L416.791 414.713L524.865 476.646L536.908 520.242L430.017 458.571Z" fill="#B1B4C4"/>
<path d="M704.42 594.22L286.021 352.867C280.175 349.48 275.396 340.399 275.396 332.588V9.30021C275.396 1.47461 280.161 -2.11699 286.021 1.27021L704.42 242.564C710.266 245.952 715.045 255.033 715.045 262.844V586.132C715.001 593.943 710.266 597.534 704.42 594.22Z" fill="#C4C7D6"/>
<path d="M706.525 597.49L711.158 594.819L709.156 581.095L706.525 597.49Z" fill="#C4C7D6"/>
<path d="M274.65 3.27041L279.21 0.627808L285.772 4.38001C285.772 4.38001 278.786 5.44581 278.611 5.40201C278.436 5.35821 274.65 3.27041 274.65 3.27041Z" fill="#B1B4C4"/>
<path d="M700.533 596.366L282.193 355.072C276.347 351.685 271.568 342.618 271.568 334.793V11.5048C271.568 3.69379 276.318 0.102186 282.193 3.48939L700.533 244.784C706.379 248.171 711.158 257.252 711.158 265.063V588.38C711.158 596.162 706.408 599.753 700.533 596.366Z" fill="#E4E7F2"/>
<path d="M699.802 596.79L281.447 355.495C275.601 352.108 270.822 343.027 270.822 335.216V11.9282C270.822 4.11719 275.587 0.525587 281.447 3.91279L699.802 245.28C705.648 248.653 710.427 257.734 710.427 265.559V588.76C710.427 596.585 705.662 600.177 699.802 596.79Z" fill="#D6D8E5"/>
<path d="M704.668 577.123L276.215 329.96L276.361 13.2276C276.361 9.98642 278.641 8.67242 281.447 10.3076L699.802 251.587C701.276 252.548 702.504 253.841 703.388 255.363C704.271 256.884 704.785 258.591 704.887 260.347L704.668 577.123Z" fill="white"/>
<path d="M445.335 149.037L308.075 69.8756C307.442 69.4194 306.924 68.8212 306.564 68.129C306.203 67.4369 306.01 66.6699 306 65.8898V56.3268C306 54.8668 306.921 54.093 308.075 54.75L445.335 133.911C445.966 134.37 446.482 134.968 446.842 135.66C447.202 136.352 447.396 137.117 447.41 137.897V147.46C447.41 148.993 446.475 149.708 445.335 149.037Z" fill="#E9EAF2"/>
<path d="M410.084 151.329L308.703 92.856C308.067 92.4045 307.547 91.8097 307.183 91.1197C306.82 90.4298 306.625 89.6642 306.613 88.8848V84.1252C306.613 82.6652 307.549 81.8768 308.703 82.5484L410.084 141.021C410.711 141.478 411.223 142.075 411.578 142.765C411.933 143.454 412.122 144.217 412.13 144.993V149.752C412.13 151.285 411.224 152.001 410.084 151.329Z" fill="#E9EAF2"/>
<path d="M410.084 169.36L308.703 110.96C308.067 110.508 307.547 109.914 307.183 109.224C306.82 108.534 306.625 107.768 306.613 106.989V102.2C306.613 100.74 307.549 99.9516 308.703 100.623L410.084 159.14C410.716 159.594 411.234 160.19 411.594 160.879C411.954 161.569 412.148 162.333 412.159 163.111V167.871C412.13 169.36 411.224 170.046 410.084 169.36Z" fill="#E9EAF2"/>
<path d="M390.954 176.397L308.703 128.947C308.067 128.496 307.547 127.901 307.183 127.211C306.82 126.521 306.625 125.755 306.613 124.976V120.216C306.613 118.756 307.549 117.968 308.703 118.64L390.954 166.075C391.589 166.53 392.109 167.128 392.472 167.82C392.835 168.512 393.031 169.28 393.043 170.061V174.82C393.043 176.353 392.108 177.054 390.954 176.397Z" fill="#4478B0"/>
<path d="M445.335 338.486L308.075 259.325C307.442 258.869 306.924 258.271 306.564 257.579C306.203 256.887 306.01 256.12 306 255.339V245.776C306 244.243 306.921 243.543 308.075 244.2L445.335 323.361C445.966 323.819 446.482 324.418 446.842 325.11C447.202 325.801 447.396 326.567 447.41 327.347V336.91C447.41 338.443 446.475 339.143 445.335 338.486Z" fill="#E9EAF2"/>
<path d="M410.084 340.779L308.703 282.379C308.068 281.923 307.548 281.325 307.185 280.633C306.822 279.941 306.626 279.174 306.613 278.393V273.633C306.613 272.1 307.549 271.399 308.703 272.071L410.084 330.471C410.715 330.93 411.231 331.528 411.591 332.22C411.951 332.912 412.146 333.677 412.159 334.457V339.216C412.13 340.735 411.224 341.436 410.084 340.779Z" fill="#E9EAF2"/>
<path d="M410.084 358.824L308.703 300.351C308.069 299.898 307.549 299.303 307.187 298.613C306.824 297.924 306.627 297.159 306.613 296.38V291.62C306.613 290.16 307.549 289.387 308.703 290.058L410.084 348.458C410.715 348.917 411.231 349.515 411.591 350.207C411.951 350.899 412.146 351.664 412.159 352.444V357.204C412.13 358.78 411.224 359.481 410.084 358.824Z" fill="#E9EAF2"/>
<path d="M390.954 365.832L308.703 318.397C308.067 317.942 307.546 317.345 307.183 316.652C306.82 315.96 306.625 315.192 306.613 314.411V309.651C306.613 308.118 307.549 307.418 308.703 308.089L390.954 355.525C391.589 355.98 392.109 356.578 392.472 357.27C392.835 357.962 393.031 358.729 393.043 359.51V364.27C393.043 365.803 392.108 366.46 390.954 365.832Z" fill="#4478B0"/>
<path d="M482.061 361.992C482.061 361.992 497.202 374.694 519.065 357.35C534.673 344.56 548.63 351.86 556.405 356.24C564.18 360.62 575.404 363.306 596.785 401.88C596.785 401.88 603.741 413.968 615.228 420.597C626.715 427.225 632.24 423.984 641.271 410.377C650.303 396.77 656.222 381.702 672.824 391.543V528.33L480.57 417.56V361.102L482.061 361.992Z" fill="#F5F6FF"/>
<path d="M440.277 304.001L308.746 228.081C308.111 227.626 307.591 227.028 307.228 226.336C306.865 225.644 306.669 224.877 306.656 224.095V148.278C306.656 146.818 307.592 146.044 308.746 146.701L440.277 222.621C440.912 223.076 441.432 223.674 441.795 224.366C442.158 225.058 442.354 225.825 442.367 226.607V302.454C442.367 303.957 441.431 304.658 440.277 304.001Z" fill="#E9EAF2"/>
<path d="M480.57 358.81V417.531L672.824 528.403V391.616" stroke="#E9EAF2" stroke-width="0.31" stroke-miterlimit="10"/>
<path d="M556.127 356.926V460.966" stroke="#E9EAF2" stroke-width="0.31" stroke-miterlimit="10"/>
<path d="M614.949 422.728V494.881" stroke="#E9EAF2" stroke-width="0.31" stroke-miterlimit="10"/>
<path d="M480.57 361.102C514.681 382.228 519.503 334.471 556.668 355.904C593.833 377.337 588.703 405.267 616.134 421.093C643.566 436.92 644.209 375.103 672.824 391.616" stroke="#E9EAF2" stroke-width="1.53" stroke-miterlimit="10"/>
<path d="M559.325 362.495C561.093 361.475 561.091 358.163 559.319 355.097C557.547 352.032 554.678 350.373 552.909 351.393C551.141 352.413 551.143 355.725 552.915 358.791C554.687 361.857 557.556 363.515 559.325 362.495Z" fill="#4478B0"/>
<path d="M678.715 398.769C680.491 397.749 680.495 394.426 678.724 391.346C676.952 388.266 674.075 386.597 672.299 387.617C670.522 388.637 670.518 391.96 672.29 395.04C674.062 398.119 676.938 399.789 678.715 398.769Z" fill="#4478B0"/>
<path d="M620.596 428.72C622.372 427.699 622.376 424.376 620.604 421.296C618.833 418.217 615.956 416.547 614.18 417.567C612.403 418.587 612.399 421.911 614.171 424.99C615.942 428.07 618.819 429.74 620.596 428.72Z" fill="#4478B0"/>
<path d="M483.778 366.666C485.546 365.646 485.544 362.334 483.772 359.268C482.001 356.203 479.131 354.544 477.362 355.564C475.594 356.584 475.596 359.896 477.368 362.962C479.14 366.028 482.01 367.686 483.778 366.666Z" fill="#4478B0"/>
<path d="M485.993 260.216L478.115 255.675C477.48 255.22 476.96 254.622 476.597 253.93C476.234 253.238 476.038 252.471 476.025 251.689V213.729C476.025 212.196 476.961 211.496 478.115 212.153L485.993 216.708C486.627 217.147 487.15 217.729 487.52 218.405C487.891 219.082 488.098 219.835 488.126 220.606V258.639C488.126 260.172 487.147 260.873 485.993 260.216Z" fill="#E9EAF2"/>
<path d="M504.202 270.684L496.324 266.129C495.688 265.677 495.168 265.082 494.805 264.393C494.442 263.703 494.246 262.937 494.234 262.158V184.778C494.234 183.318 495.17 182.529 496.324 183.201L504.202 187.756C504.837 188.211 505.357 188.809 505.72 189.501C506.083 190.193 506.278 190.961 506.291 191.742V269.122C506.233 270.64 505.298 271.341 504.202 270.684Z" fill="#4478B0"/>
<path d="M540.43 291.606L532.553 287.065C531.915 286.612 531.393 286.015 531.03 285.322C530.667 284.63 530.472 283.861 530.463 283.079V213.233C530.463 211.7 531.398 210.999 532.553 211.656L540.43 216.197C541.065 216.652 541.585 217.25 541.948 217.942C542.311 218.634 542.507 219.401 542.52 220.183V290.044C542.52 291.577 541.585 292.277 540.43 291.606Z" fill="#E9EAF2"/>
<path d="M558.582 302.074L550.705 297.533C550.07 297.078 549.55 296.48 549.187 295.788C548.824 295.096 548.628 294.329 548.615 293.548V235.673C548.615 234.213 549.551 233.439 550.705 234.096L558.582 238.652C559.218 239.103 559.739 239.698 560.102 240.388C560.465 241.078 560.66 241.843 560.672 242.623V300.497C560.672 302.045 559.737 302.746 558.582 302.074Z" fill="#4478B0"/>
<path d="M594.723 322.923L586.831 318.382C586.198 317.926 585.68 317.328 585.319 316.636C584.959 315.943 584.766 315.177 584.756 314.396V285.795C584.756 284.247 585.677 283.547 586.831 284.218L594.723 288.759C595.354 289.217 595.87 289.816 596.23 290.508C596.59 291.199 596.785 291.965 596.798 292.745V321.346C596.798 322.879 595.863 323.58 594.723 322.923Z" fill="#E9EAF2"/>
<path d="M612.86 333.391L605.041 328.836C604.405 328.384 603.884 327.789 603.521 327.1C603.158 326.41 602.963 325.644 602.951 324.865V227.585C602.951 226.037 603.886 225.336 605.041 226.008L612.918 230.549C613.554 231.003 614.075 231.601 614.438 232.293C614.801 232.985 614.996 233.753 615.008 234.534V331.814C614.95 333.347 614.014 334.048 612.86 333.391Z" fill="#4478B0"/>
<path d="M657.127 358.926L649.25 354.371C648.614 353.92 648.093 353.325 647.73 352.635C647.367 351.945 647.172 351.179 647.16 350.4V321.784C647.16 320.251 648.095 319.55 649.25 320.207L657.127 324.762C657.765 325.215 658.287 325.812 658.65 326.505C659.013 327.198 659.208 327.966 659.217 328.748V357.35C659.217 358.883 658.282 359.583 657.127 358.926Z" fill="#E9EAF2"/>
<path d="M675.28 369.38L667.402 364.825C666.764 364.372 666.243 363.775 665.879 363.082C665.516 362.389 665.322 361.621 665.312 360.839V322.879C665.312 321.346 666.248 320.645 667.402 321.302L675.28 325.843C675.915 326.298 676.435 326.896 676.798 327.588C677.161 328.28 677.356 329.047 677.369 329.829V367.862C677.369 369.38 676.434 370.052 675.28 369.38Z" fill="#4478B0"/>
<path opacity="0.4" d="M153.321 727.08L88.0821 689.5C80.6872 685.222 81.6079 677.82 90.1574 672.856L123.274 653.744C131.809 648.824 144.684 648.24 152.123 652.62L217.362 690.259C224.757 694.522 223.836 701.939 215.287 706.888L182.17 726C173.635 730.847 160.76 731.46 153.321 727.08Z" fill="#D6D8E5"/>
<path d="M251.37 680.17V589.198L112.064 573.532V665.074C111.976 667.877 113.526 670.549 117.033 672.534L182.272 710.173C189.667 714.436 202.586 713.896 211.121 708.976L244.238 689.865C249.046 687.091 251.443 683.514 251.296 680.17H251.37Z" fill="#D6D8E5"/>
<path d="M251.282 599.126V589.198H240.569L181.074 554.873C173.679 550.595 160.76 551.135 152.225 556.056L119.108 575.24C118.519 575.575 117.949 575.94 117.398 576.335L112.064 573.605C112.064 573.605 112.064 584.102 112.064 584.453C111.976 587.227 113.526 589.898 117.033 591.884L182.272 629.508C189.667 633.772 202.586 633.231 211.121 628.311L244.238 609.214C249.192 606.294 251.545 602.644 251.267 599.199L251.282 599.126Z" fill="#EDF0F9"/>
<path d="M182.272 618.617L117.033 580.992C109.638 576.729 110.559 569.312 119.109 564.348L152.225 545.252C160.76 540.317 173.679 539.791 181.074 544.054L246.313 581.679C253.708 585.942 252.787 593.359 244.238 598.323L211.121 617.419C202.587 622.354 189.667 622.88 182.272 618.617Z" fill="#E2E5F2"/>
<path d="M167.569 567.254V563.633H165.348L164.661 563.195C162.476 562.087 160.06 561.51 157.609 561.51C155.159 561.51 152.743 562.087 150.558 563.195C150.14 563.438 149.744 563.717 149.374 564.027L147.635 563.633V567.254C147.716 568.131 148.03 568.97 148.544 569.686C149.057 570.402 149.753 570.968 150.558 571.327C152.743 572.435 155.159 573.013 157.609 573.013C160.06 573.013 162.476 572.435 164.661 571.327C165.466 570.97 166.16 570.404 166.672 569.687C167.183 568.971 167.493 568.131 167.569 567.254Z" fill="#6E48E5"/>
<path d="M157.602 569.385C163.107 569.385 167.569 566.81 167.569 563.633C167.569 560.456 163.107 557.881 157.602 557.881C152.097 557.881 147.635 560.456 147.635 563.633C147.635 566.81 152.097 569.385 157.602 569.385Z" fill="#4478B0"/>
<path d="M192.298 582.54C191.754 583.756 190.81 584.751 189.623 585.358C187.439 586.459 185.026 587.033 182.579 587.033C180.132 587.033 177.719 586.459 175.535 585.358C174.348 584.751 173.404 583.756 172.86 582.54C172.13 580.671 173.036 578.671 175.535 577.211C177.719 576.11 180.132 575.536 182.579 575.536C185.026 575.536 187.439 576.11 189.623 577.211C192.137 578.598 193.028 580.598 192.298 582.54Z" fill="#5E42D3"/>
<path d="M192.297 582.54C191.753 583.756 190.81 584.751 189.622 585.358C187.438 586.459 185.025 587.033 182.578 587.033C180.131 587.033 177.719 586.459 175.534 585.358C174.819 585.306 174.15 584.986 173.662 584.462C173.174 583.938 172.902 583.249 172.902 582.533C172.902 581.817 173.174 581.127 173.662 580.603C174.15 580.079 174.819 579.759 175.534 579.708C177.719 578.606 180.131 578.033 182.578 578.033C185.025 578.033 187.438 578.606 189.622 579.708C190.812 580.318 191.756 581.318 192.297 582.54Z" fill="#4478B0"/>
<path d="M215.725 595.49V591.869H213.504L212.817 591.431C210.632 590.323 208.216 589.746 205.765 589.746C203.315 589.746 200.899 590.323 198.714 591.431C198.3 591.675 197.904 591.948 197.53 592.249L195.791 591.869V595.49C195.873 596.367 196.186 597.207 196.7 597.922C197.214 598.638 197.909 599.205 198.714 599.564C200.899 600.672 203.315 601.249 205.765 601.249C208.216 601.249 210.632 600.672 212.817 599.564C213.622 599.207 214.317 598.64 214.828 597.924C215.34 597.207 215.649 596.367 215.725 595.49Z" fill="#6E48E5"/>
<path d="M205.758 597.622C211.263 597.622 215.725 595.046 215.725 591.869C215.725 588.692 211.263 586.117 205.758 586.117C200.253 586.117 195.791 588.692 195.791 591.869C195.791 595.046 200.253 597.622 205.758 597.622Z" fill="#4478B0"/>
<path d="M95.4326 552.625C95.038 556.026 91.0482 570.714 91.8374 575.751C92.6266 580.788 106.598 589.198 106.598 589.198L108.527 580.584L100.84 573.05L102.915 558.786L95.4326 552.625Z" fill="#FFCEA9"/>
<path d="M106.174 538.156C104.825 537.528 103.291 537.417 101.866 537.845C100.44 538.273 99.2218 539.21 98.4429 540.477C96.3969 543.865 94.2778 555.457 94.0586 557.443C94.0586 557.443 96.9815 561.399 101.234 560.742L106.174 538.156Z" fill="#EDEDED"/>
<path d="M122.032 701.91C125.055 702.741 128.285 702.347 131.02 700.815C133.183 700.888 144.947 695.851 146.54 700.07C148.002 703.778 142.843 707.195 140.124 707.852C134.191 709.312 129.807 712.232 127.41 712.757C125.642 713.122 123.332 713.371 121.929 711.969C120.22 710.305 120.366 704.114 122.032 701.91Z" fill="#38226D"/>
<path d="M127.408 711.721C129.805 711.224 134.189 708.261 140.123 706.83C142.403 706.275 146.334 703.793 146.729 700.815C147.255 704.216 142.666 707.239 140.123 707.852C134.189 709.312 129.805 712.232 127.408 712.757C125.64 713.122 123.331 713.371 121.928 711.969C121.544 711.558 121.272 711.055 121.139 710.509C122.015 711.188 123.04 711.651 124.129 711.862C125.218 712.072 126.341 712.024 127.408 711.721Z" fill="#9C73FF"/>
<path d="M102.973 693.354C105.995 694.19 109.224 693.801 111.961 692.274C114.124 692.274 125.874 687.31 127.482 691.529C128.943 695.223 123.784 698.639 121.066 699.311C115.132 700.771 110.734 703.691 108.351 704.202C106.568 704.567 104.274 704.815 102.856 703.428C101.161 701.749 101.307 695.559 102.973 693.354Z" fill="#38226D"/>
<path d="M108.352 703.18C110.734 702.669 115.133 699.72 121.066 698.274C123.346 697.734 127.277 695.237 127.672 692.274C128.198 695.675 123.609 698.683 121.066 699.311C115.133 700.771 110.734 703.691 108.352 704.202C106.569 704.567 104.274 704.815 102.857 703.428C102.486 703.01 102.221 702.509 102.082 701.968C102.961 702.642 103.986 703.102 105.074 703.312C106.162 703.523 107.284 703.477 108.352 703.18Z" fill="#9C73FF"/>
<path d="M102.739 661.453C103.246 657.092 104.151 652.786 105.443 648.59C105.443 648.59 104.639 637.494 104.23 626.968C103.777 615.025 99.6266 604.513 102.9 594.994L139.773 603.184C139.773 603.184 137.551 650.795 137.054 656.547C136.787 661.036 136.235 665.502 135.403 669.921C133.722 679.163 131.019 701.15 131.019 701.15C127.131 703.413 122.001 702.158 122.001 702.158C122.001 702.158 122.294 674.418 122.542 667.702C122.849 659.57 123.097 660.183 123.097 660.183L121.87 639.933L121.081 629.859C121.081 629.859 120.058 637.246 119.385 643.86C118.815 649.612 117.427 654.825 115.863 665.541C114.519 674.841 112.327 693.529 112.327 693.529C108.424 695.792 103.134 693.909 103.134 693.909C103.134 693.909 101.687 669.512 102.739 661.453Z" fill="#4478B0"/>
<path d="M108.148 538.346C110.969 538.492 113.059 539.207 113.409 538.346C113.702 536.899 113.912 535.437 114.038 533.966C113.716 533.148 113.439 532.272 113.439 532.272C109.916 530.111 108.806 526.301 108.338 521.862C107.549 514.285 111.641 507.657 119.226 506.868C126.358 506.124 131.619 511.131 133.007 518.008C133.767 521.395 135.273 527.819 133.241 533.396C132.101 536.521 130.64 539.003 129.178 539.485C127.764 539.439 126.354 539.312 124.955 539.105C124.955 539.105 124.575 541.207 124.312 542.551C124.049 543.894 124.151 544.624 126.84 546.274C129.529 547.923 122.763 551.384 118.378 551.048C113.994 550.712 108.996 548.055 107.622 545.208C106.058 542.01 106.19 538.258 108.148 538.346Z" fill="#FFCEA9"/>
<path d="M112.182 538.74C111.407 540.682 113.38 543.12 118.656 544.697C123.932 546.274 124.414 544.23 124.414 544.23C127.919 545.797 131.334 547.556 134.644 549.5C137.816 551.719 139.219 558.114 139.642 568.918C140.139 581.416 140.183 599.958 139.759 603.155C139.759 603.155 133.914 608.995 126.27 608.426C118.627 607.856 105.971 601.126 102.887 595.943C102.975 584.978 104.261 583.197 102.478 576.89C98.4149 562.436 96.2812 556.45 98.2542 546.916C99.8764 538.988 102.156 538.01 105.298 538.083C107.603 538.176 109.901 538.395 112.182 538.74Z" fill="#F4F4F4"/>
<path d="M151.567 579.284C145.342 580.846 143.895 576.934 143.076 573.692C141.089 565.837 140.036 558.756 138.56 554.303C136.821 549.047 134.994 548.215 132.452 547.193C129.529 545.981 126.869 548.522 127.863 555.209C129.089 562.968 130.996 570.604 133.562 578.029C134.337 580.467 136.061 584.803 138.663 586.905C141.863 589.49 146.701 589.387 154.008 587.577C157.121 586.789 160.541 584.934 166.43 582.19C168.009 581.46 169.236 580.963 172.276 579.547C175.328 578.186 178.002 576.101 180.066 573.473C181.659 571.167 181.863 570.086 181.527 569.56C181.191 569.035 180.402 569.049 179.554 570.028C178.324 571.662 176.809 573.062 175.082 574.16C175.082 574.16 177.04 572.13 178.107 570.816C179.06 569.647 179.852 568.356 180.46 566.976C181.016 565.633 179.861 563.808 178.999 564.772C178.136 565.735 177.698 566.699 176.076 568.626C175.216 569.655 174.234 570.577 173.153 571.371C174.151 570.025 175.036 568.599 175.798 567.108C176.486 565.943 176.826 564.605 176.777 563.253C176.777 562.552 175.74 561.72 174.804 563.049C173.901 564.874 172.783 566.585 171.472 568.144C170.011 569.604 168.842 570.451 168.812 570.042C168.783 569.633 169.66 568.83 170.172 567.122C170.683 565.414 170.172 563.589 169.222 563.399C168.272 563.209 168.462 563.253 167.76 564.859C166.713 566.507 165.771 568.218 164.94 569.984C164.451 571.627 163.573 573.13 162.382 574.364C160.848 575.999 157.472 577.795 151.567 579.284Z" fill="#FFCEA9"/>
<path d="M130.142 546.113C134.293 545.5 137.23 547.369 139.057 553.647C140.884 559.925 142.17 565.02 142.17 565.02C140.531 567.387 138.047 569.038 135.228 569.634C130.259 570.845 128.476 568.466 128.476 568.466C128.476 568.466 127.102 561.896 126.24 557.413C125.378 552.931 125.013 546.872 130.142 546.113Z" fill="#EDEDED"/>
<path d="M132.744 517.03C132.744 517.03 139.291 507.073 125.086 505.043C114.856 503.583 108.265 510.153 107.549 517.293C106.818 524.111 111.027 531.192 114.052 533.995C117.034 534.753 120.192 534.373 122.908 532.929C123.082 531.075 123.151 529.213 123.113 527.352C123.113 527.352 118.071 516.84 132.744 517.03Z" fill="#3A2C6D"/>
<path opacity="0.4" d="M559.122 707.808C579.002 707.808 595.118 698.513 595.118 687.047C595.118 675.581 579.002 666.286 559.122 666.286C539.243 666.286 523.127 675.581 523.127 687.047C523.127 698.513 539.243 707.808 559.122 707.808Z" fill="#D6D8E5"/>
<path d="M558.816 486.72C560.277 484.34 571.677 482.764 575.418 492.385C576.879 496.035 576.616 505.364 577.8 511.219C578.984 517.074 581.775 520.402 582.784 525.147C583.792 529.892 582.155 537.864 570.683 539.28C559.21 540.696 550.398 536.667 547.694 533.017C544.991 529.367 544.932 521.6 547.694 517.424C550.456 513.248 552.649 509.876 552.576 504.445L558.816 486.72Z" fill="#3A2C6D"/>
<path d="M566.328 485.07C566.328 485.07 557.764 482.603 552.576 487.217C550.866 488.794 549.622 490.81 548.978 493.044C548.334 495.278 548.315 497.645 548.922 499.889C549.609 502.59 550.997 506.27 553.146 506.474C555.294 506.678 566.328 485.07 566.328 485.07Z" fill="#3A2C6D"/>
<path d="M569.6 508.387C569.6 508.387 569.03 517.906 569.205 518.607C569.381 519.307 572.947 520.067 573.955 520.826C574.964 521.585 568.767 531.323 565.625 532.754C562.483 534.185 552.735 530.52 552.048 525.688C551.434 521.22 554.839 517.76 556.155 516.548C557.048 516.463 557.947 516.439 558.844 516.475L559.136 511.861C563.403 510.504 569.6 508.387 569.6 508.387Z" fill="#FFCEA9"/>
<path d="M546.584 526.388C546.584 526.111 545.122 526.885 545.122 526.899C545.122 526.914 544.435 551.354 543.237 553.574C540.182 558.757 532.101 567.546 531.896 568.524C531.297 571.444 533.021 568.831 535.798 568.524C537.362 568.334 546.554 559.049 548.615 556.932L548.747 557.005V556.771L549.01 556.494C549.062 555.833 549.062 555.169 549.01 554.508C552.882 527.951 548.177 526.184 546.584 526.388Z" fill="#FFCEA9"/>
<path d="M570.901 519.541C573.59 519.95 576.645 521.381 577.068 522.841C578.175 528.123 577.913 533.601 576.308 538.755C573.985 544.887 572.421 548.785 571.076 551.427C571.076 551.427 559.487 556.391 550.134 550.595C550.134 550.595 549.491 544.025 549.447 540.507C540.824 532.988 548.205 523.717 555.512 516.519C556.387 516.439 557.268 516.439 558.143 516.519C558.143 516.519 551.625 524.228 556.155 528.608C565.874 525.6 567.803 521.22 570.901 519.541Z" fill="#F4F4F4"/>
<path d="M551.785 496.575C552.735 490.458 557.163 485.83 563.477 486.195C566.021 486.332 568.457 487.265 570.441 488.862C572.425 490.459 573.856 492.638 574.532 495.093C575.207 497.547 575.093 500.151 574.206 502.537C573.318 504.923 571.702 506.969 569.585 508.387C569.368 509.313 569.039 510.21 568.606 511.058C566.37 513.657 560.422 515.307 558.464 515.336C556.769 515.336 555.307 513.774 553.714 511.146C550.411 505.671 551.259 499.597 551.785 496.575Z" fill="#FFCEA9"/>
<path d="M565.45 486.311C569.834 487.173 573.517 488.428 574.73 492.765C575.548 495.772 576.63 501.525 575.607 503.875L574.964 505.613L569.6 508.387C569.6 508.387 567.087 506.299 567.876 500.181C567.845 499.356 567.582 498.557 567.116 497.875C566.78 497.295 566.529 496.671 566.371 496.02C565.734 494.368 564.49 493.021 562.892 492.254C558.903 490.02 553.057 491.947 552.238 492.765C553.368 490.341 555.297 488.377 557.701 487.203C560.106 486.028 562.841 485.714 565.45 486.311Z" fill="#3A2C6D"/>
<path d="M573.518 679.907C571.267 681.732 567.774 680.477 567.672 680.637C565.053 682.88 562.311 684.976 559.459 686.915C557.997 688.01 555.878 689.485 556.273 691.587C556.974 695.369 563.025 694.215 565.304 693.047C567.584 691.879 569.455 689.981 571.618 688.667C573.152 687.718 574.672 687.207 574.921 685.28C574.994 684.068 573.912 679.864 573.518 679.907Z" fill="#38226D"/>
<path d="M574.832 684.463C574.525 686.331 573.034 686.842 571.5 687.791C569.308 689.149 567.378 691.12 565.099 692.274C562.819 693.427 557.718 694.391 556.242 691.704C557.046 695.34 562.994 694.201 565.245 693.047C567.495 691.894 569.395 689.981 571.558 688.667C573.093 687.718 574.613 687.207 574.861 685.28C574.873 685.007 574.863 684.734 574.832 684.463Z" fill="#9C73FF"/>
<path d="M557.778 676.768C555.717 678.447 552.619 677.498 552.473 677.659C550.072 679.698 547.564 681.608 544.961 683.382C543.675 684.39 541.673 685.733 542.038 687.66C542.681 691.12 548.22 690.055 550.324 689.003C552.429 687.952 554.11 686.185 556.097 684.959C557.559 684.083 558.888 683.63 559.108 681.849C559.254 680.769 558.143 676.725 557.778 676.768Z" fill="#38226D"/>
<path d="M559.093 681.134C558.816 682.842 557.442 683.309 556.039 684.171C554.037 685.426 552.268 687.222 550.193 688.288C548.118 689.354 543.441 690.23 542.082 687.762C542.813 691.091 548.264 690.054 550.339 689.003C552.415 687.952 554.124 686.185 556.112 684.959C557.573 684.083 558.903 683.63 559.123 681.849C559.141 681.61 559.132 681.37 559.093 681.134Z" fill="#9C73FF"/>
<path d="M545.676 572.524C546.67 564.786 549.52 553.544 549.52 553.544C552.214 554.802 555.128 555.521 558.099 555.661C562.454 555.646 566.799 555.226 571.076 554.406C572.471 556.843 573.998 559.202 575.651 561.472C577.887 564.567 582.227 571.342 581.175 583.182C580.488 590.92 576.148 623.785 576.148 623.785C577.838 629.31 578.739 635.046 578.822 640.823C578.412 647.693 577.504 654.525 576.104 661.263L573.517 679.907C573.517 679.907 570.068 682.404 567.671 680.637L567.978 662.387C567.686 657.92 567.233 651.335 566.955 647.13C566.488 640.268 565.26 629.391 564.909 626.69C564.558 623.989 563.682 619.215 563.258 613.901C562.834 608.586 560.846 581.533 560.846 581.533L560.569 586.599C560.569 586.599 560.291 594.819 559.107 604.966C557.923 615.113 557.514 619.566 557.514 619.566C558.636 621.612 559.421 623.825 559.838 626.121C560.043 628.311 562.542 645.656 561.051 654.474L557.967 676.914C557.203 677.445 556.322 677.785 555.4 677.907C554.477 678.029 553.538 677.929 552.662 677.615L550.85 655C549.637 646.4 547.065 628.165 546.67 625.8C545.793 621.022 545.275 616.186 545.121 611.331C544.478 601.52 544.683 580.248 545.676 572.524Z" fill="#FFCEA9"/>
<path d="M571.077 551.427L577.741 564.786C577.741 564.786 587.971 579.649 577.376 617.857L579.349 629.654C579.349 629.654 559.415 642.429 546.072 629.654C546.072 629.654 541.453 594.337 543.909 578.058C545.283 568.703 547.359 559.464 550.12 550.42C550.12 550.42 553.394 554.026 570.2 551.646" fill="#4478B0"/>
<path d="M555.513 516.519C555.513 516.519 550.222 514.898 544.596 526.622L546.7 527.878C546.7 527.878 552.239 519.526 555.513 516.519Z" fill="#EDEDED"/>
<path d="M514.197 580.043L536.967 566.83L553.306 576.247L530.536 589.475L514.197 580.043Z" fill="#F4F4F4"/>
<path d="M534.028 567.794C532.6 567.937 531.22 568.385 529.98 569.108C529.525 569.505 529.036 569.862 528.519 570.174C528.299 570.276 528.08 570.422 527.846 570.524C527.498 570.652 527.183 570.856 526.926 571.123C526.671 571.498 526.534 571.94 526.531 572.393C526.414 572.935 526.385 573.492 526.443 574.043C526.648 574.86 527.495 574.787 527.905 574.218C528.127 573.933 528.255 573.586 528.27 573.225C528.282 572.88 528.376 572.543 528.544 572.241C528.711 571.939 528.948 571.681 529.235 571.488L534.671 568.115C534.608 568.004 534.513 567.914 534.399 567.856C534.284 567.799 534.155 567.777 534.028 567.794Z" fill="#FFCEA9"/>
<path d="M577.346 527.06C576.601 523.965 574.175 524.958 572.085 523.147C567.248 529.995 570.463 548.507 571.121 550.478L552.531 562.319L551.274 563.093C549.158 564.482 546.82 565.499 544.361 566.1C542.505 566.319 541.541 568.933 539.553 569.166C539.402 569.172 539.255 569.222 539.131 569.31C539.008 569.398 538.913 569.52 538.858 569.662C538.804 569.803 538.792 569.958 538.825 570.106C538.857 570.254 538.933 570.389 539.042 570.495C539.831 571.254 541.965 570.626 543.426 568.933C543.419 568.971 543.419 569.011 543.426 569.05C543.438 569.32 543.52 569.584 543.663 569.814C543.806 570.044 544.007 570.233 544.245 570.364C544.351 570.428 544.471 570.468 544.595 570.48C544.595 570.605 544.63 570.726 544.698 570.831C544.803 571.045 544.959 571.23 545.153 571.37C545.347 571.51 545.572 571.601 545.808 571.634C545.913 571.933 546.112 572.191 546.375 572.367C546.639 572.544 546.953 572.63 547.27 572.612C547.696 572.591 548.099 572.408 548.395 572.101C549.98 571.497 551.381 570.49 552.458 569.181C553.41 568.193 554.415 567.257 555.468 566.378C560.51 564.202 575.637 557.749 576.309 556.829C577.361 555.442 578.428 531.44 577.346 527.06Z" fill="#FFCEA9"/>
<path d="M579.042 535.367C579.042 535.367 573.094 538.025 568.154 535.543L568.87 526.242C568.87 526.242 568.943 521.249 573.401 520.753C577.858 520.256 580.197 525.965 579.042 535.367Z" fill="#EDEDED"/>
</svg>
