<svg width="250" height="247" viewBox="0 0 250 247" fill="none" xmlns="http://www.w3.org/2000/svg">
<path opacity="0.4" d="M78.0106 245.335L27.7076 216.252C23.4491 213.781 23.982 209.486 28.9018 206.64L150.411 136.396C155.345 133.549 162.772 133.243 167.03 135.704L217.333 164.787C221.592 167.258 221.059 171.557 216.139 174.399L94.6302 244.648C89.7104 247.489 82.2691 247.801 78.0106 245.335Z" fill="#D6D8E5"/>
<path d="M84.3811 241.51L34.0831 212.427C29.8196 209.956 30.3575 205.656 35.2772 202.815L156.781 132.556C161.716 129.715 169.117 129.403 173.406 131.869L223.704 160.952C227.962 163.423 227.429 167.718 222.51 170.564L101.006 240.818C96.0859 243.664 88.6446 243.971 84.3811 241.51Z" fill="#B1B4C4"/>
<path d="M31.2062 208.187V203.551L36.6392 205.602L31.2062 208.187Z" fill="#B1B4C4"/>
<path d="M226.581 164.965V160.507L222.263 163.295L226.581 164.965Z" fill="#B1B4C4"/>
<path d="M84.3811 237.581L34.0831 208.498C29.8196 206.027 30.3575 201.732 35.2772 198.886L156.781 128.632C161.716 125.786 169.117 125.479 173.406 127.94L223.704 157.023C227.962 159.494 227.429 163.794 222.51 166.635L101.006 236.894C96.0859 239.735 88.6446 240.047 84.3811 237.581Z" fill="#616E84"/>
<path d="M40.1523 214.459C40.4095 214.31 40.4093 213.827 40.1518 213.38C39.8942 212.934 39.4769 212.692 39.2197 212.841C38.9624 212.99 38.9626 213.472 39.2202 213.919C39.4777 214.366 39.895 214.607 40.1523 214.459Z" fill="#757B89"/>
<path d="M42.5738 215.86C42.8311 215.711 42.8308 215.229 42.5733 214.782C42.3157 214.335 41.8984 214.094 41.6412 214.242C41.3839 214.391 41.3841 214.874 41.6417 215.321C41.8992 215.767 42.3165 216.009 42.5738 215.86Z" fill="#757B89"/>
<path d="M44.9953 217.257C45.2525 217.108 45.2523 216.625 44.9948 216.178C44.7372 215.732 44.3199 215.49 44.0626 215.639C43.8054 215.788 43.8056 216.27 44.0632 216.717C44.3207 217.164 44.738 217.405 44.9953 217.257Z" fill="#757B89"/>
<path d="M47.415 218.66C47.6722 218.511 47.672 218.028 47.4144 217.582C47.1569 217.135 46.7396 216.893 46.4823 217.042C46.2251 217.191 46.2253 217.674 46.4828 218.12C46.7404 218.567 47.1577 218.809 47.415 218.66Z" fill="#757B89"/>
<path d="M68.2071 230.677C68.4643 230.528 68.4641 230.045 68.2066 229.599C67.949 229.152 67.5317 228.91 67.2744 229.059C67.0172 229.208 67.0174 229.691 67.2749 230.137C67.5325 230.584 67.9498 230.826 68.2071 230.677Z" fill="#757B89"/>
<path d="M70.6243 232.081C70.8815 231.932 70.8813 231.449 70.6238 231.003C70.3662 230.556 69.9489 230.314 69.6916 230.463C69.4344 230.612 69.4346 231.095 69.6921 231.541C69.9497 231.988 70.367 232.23 70.6243 232.081Z" fill="#757B89"/>
<path d="M73.0458 233.477C73.303 233.329 73.3028 232.846 73.0453 232.399C72.7877 231.952 72.3704 231.711 72.1131 231.86C71.8559 232.008 71.8561 232.491 72.1137 232.938C72.3712 233.385 72.7885 233.626 73.0458 233.477Z" fill="#757B89"/>
<path d="M75.4697 234.878C75.727 234.729 75.7268 234.247 75.4692 233.8C75.2117 233.353 74.7944 233.112 74.5371 233.26C74.2798 233.409 74.2801 233.892 74.5376 234.339C74.7951 234.785 75.2125 235.027 75.4697 234.878Z" fill="#757B89"/>
<path d="M60.6952 226.798L54.0483 222.948C53.815 222.783 53.6241 222.564 53.4912 222.311C53.3582 222.058 53.2871 221.776 53.2835 221.49C53.2835 220.927 53.624 220.67 54.0483 220.912L60.6952 224.762C60.9285 224.927 61.1194 225.145 61.2524 225.399C61.3853 225.652 61.4565 225.933 61.4601 226.219C61.4354 226.783 61.0949 227.04 60.6952 226.798Z" fill="#757B89"/>
<path d="M211.357 176.01L205.169 179.588C204.78 179.81 204.459 179.588 204.459 179.049C204.463 178.783 204.53 178.521 204.653 178.285C204.777 178.05 204.954 177.846 205.169 177.69L211.357 174.117C211.747 173.89 212.063 174.117 212.063 174.651C212.059 174.917 211.994 175.178 211.871 175.414C211.749 175.65 211.573 175.854 211.357 176.01Z" fill="#757B89"/>
<path d="M201.883 181.485L195.695 185.063C195.305 185.291 194.984 185.063 194.984 184.525C194.99 184.259 195.057 183.999 195.18 183.764C195.303 183.529 195.48 183.326 195.695 183.171L201.883 179.593C202.273 179.365 202.589 179.593 202.589 180.131C202.585 180.397 202.52 180.658 202.397 180.893C202.275 181.128 202.099 181.331 201.883 181.485Z" fill="#757B89"/>
<path d="M84.3811 236.869L34.0831 207.786C29.8196 205.315 30.3575 201.021 35.2772 198.174L156.781 127.921C161.716 125.074 169.117 124.763 173.406 127.229L223.704 156.312C227.962 158.783 227.429 163.077 222.51 165.924L101.006 236.177C96.0859 239.024 88.6446 239.33 84.3811 236.869Z" fill="#20232D"/>
<path d="M218.305 157.473L198.666 146.107L198.621 146.136C196.297 147.476 192.537 147.476 190.233 146.136C187.928 144.797 187.913 142.618 190.233 141.278L190.282 141.249L170.642 129.883C167.682 128.158 162.826 128.158 159.841 129.883L41.4898 198.328C38.5291 200.052 38.5291 202.849 41.4898 204.574L89.1627 232.14C92.1481 233.865 96.984 233.865 99.9645 232.14L218.305 163.715C221.286 161.99 221.286 159.198 218.305 157.473Z" fill="white"/>
<path opacity="0.5" d="M218.305 163.715L99.9645 232.14C97.2702 233.697 93.0561 233.85 90.0657 232.585C89.7574 232.455 89.4574 232.307 89.1676 232.14L41.4898 204.594C40.8286 204.231 40.257 203.724 39.817 203.111C38.6919 201.515 39.2496 199.617 41.4898 198.323L159.826 129.902C162.811 128.182 167.642 128.182 170.627 129.902L190.267 141.269H190.218C187.898 142.608 187.898 144.782 190.218 146.126C192.537 147.471 196.302 147.466 198.606 146.126L198.656 146.097L218.295 157.463C221.286 159.198 221.286 161.99 218.305 163.715Z" fill="url(#paint0_linear_3378_7106)"/>
<path d="M193.129 145.766C194.375 145.766 195.384 145.182 195.384 144.461C195.384 143.74 194.375 143.156 193.129 143.156C191.884 143.156 190.874 143.74 190.874 144.461C190.874 145.182 191.884 145.766 193.129 145.766Z" fill="#2B303F"/>
<path opacity="0.1" d="M192.448 144.846C192.369 144.818 192.301 144.765 192.253 144.696C192.204 144.627 192.179 144.545 192.179 144.461C192.179 144.377 192.204 144.295 192.253 144.226C192.301 144.157 192.369 144.104 192.448 144.075C192.655 143.97 192.884 143.916 193.117 143.916C193.349 143.916 193.578 143.97 193.785 144.075C193.867 144.102 193.938 144.153 193.988 144.223C194.038 144.292 194.065 144.375 194.065 144.461C194.065 144.547 194.038 144.63 193.988 144.699C193.938 144.768 193.867 144.82 193.785 144.846C193.578 144.952 193.349 145.006 193.117 145.006C192.884 145.006 192.655 144.952 192.448 144.846Z" fill="white"/>
<path d="M201.212 153.865L200.358 153.371L201.784 152.546L202.638 153.04L201.212 153.865Z" fill="#E9EAF2"/>
<path d="M202.352 154.523L201.498 154.028L203.492 152.877L204.345 153.371L202.352 154.523Z" fill="#E9EAF2"/>
<path d="M203.492 155.18L202.638 154.686L205.485 153.04L206.339 153.534L203.492 155.18Z" fill="#E9EAF2"/>
<path d="M204.632 155.842L203.778 155.348L207.765 153.04L208.619 153.534L204.632 155.842Z" fill="#E9EAF2"/>
<path d="M208.333 157.982L207.005 157.211L209.665 155.674L210.992 156.445L208.333 157.982Z" fill="#E9EAF2"/>
<path d="M210.109 159.005L208.777 158.239L211.436 156.702L212.764 157.468L210.109 159.005Z" fill="#E9EAF2"/>
<path d="M211.88 160.028L210.548 159.262L213.208 157.725L214.535 158.491L211.88 160.028Z" fill="#E9EAF2"/>
<path d="M156.253 144.935L150.139 141.397C149.29 140.903 149.399 140.058 150.376 139.494L156.016 136.233C156.516 135.952 157.075 135.793 157.648 135.769C158.221 135.745 158.791 135.856 159.313 136.094L165.426 139.628C166.27 140.122 166.167 140.972 165.19 141.535L159.549 144.797C159.049 145.076 158.49 145.234 157.918 145.258C157.345 145.282 156.775 145.172 156.253 144.935Z" fill="#E9EAF2"/>
<path d="M197.842 168.983L162.061 148.296C161.217 147.802 161.326 146.952 162.298 146.388L167.943 143.127C168.442 142.847 169.001 142.689 169.572 142.665C170.144 142.641 170.713 142.751 171.234 142.988L207.015 163.675C207.859 164.169 207.755 165.019 206.778 165.583L201.138 168.844C200.637 169.122 200.078 169.28 199.506 169.304C198.934 169.328 198.364 169.218 197.842 168.983Z" fill="#E9EAF2"/>
<path d="M143.867 152.096L137.753 148.558C136.91 148.064 137.013 147.219 137.99 146.655L143.63 143.394C144.13 143.113 144.689 142.954 145.262 142.93C145.835 142.906 146.405 143.017 146.927 143.255L153.041 146.774C153.884 147.268 153.781 148.118 152.804 148.681L147.164 151.943C146.664 152.225 146.106 152.385 145.534 152.412C144.961 152.439 144.39 152.33 143.867 152.096Z" fill="#E9EAF2"/>
<path d="M185.456 176.143L149.68 155.457C148.836 154.962 148.94 154.112 149.917 153.549L155.557 150.287C156.058 150.008 156.617 149.85 157.189 149.826C157.761 149.802 158.332 149.913 158.854 150.149L194.629 170.836C195.473 171.33 195.369 172.18 194.392 172.743L188.752 176.005C188.251 176.283 187.693 176.441 187.12 176.465C186.548 176.489 185.978 176.379 185.456 176.143Z" fill="#E9EAF2"/>
<g opacity="0.6">
<path opacity="0.6" d="M131.486 159.257L125.368 155.719C124.524 155.224 124.627 154.379 125.604 153.816L131.25 150.554C131.749 150.273 132.307 150.115 132.879 150.09C133.451 150.066 134.02 150.178 134.541 150.416L140.66 153.949C141.504 154.444 141.395 155.294 140.423 155.857L134.778 159.128C134.278 159.407 133.719 159.563 133.147 159.585C132.576 159.608 132.007 159.495 131.486 159.257Z" fill="#E9EAF2"/>
<path opacity="0.6" d="M173.075 183.304L137.294 162.617C136.451 162.123 136.554 161.273 137.531 160.71L143.172 157.448C143.672 157.169 144.231 157.011 144.803 156.987C145.376 156.963 145.946 157.073 146.468 157.31L182.248 177.997C183.092 178.491 182.984 179.341 182.012 179.904L176.366 183.166C175.866 183.444 175.309 183.601 174.737 183.625C174.166 183.649 173.596 183.539 173.075 183.304Z" fill="#E9EAF2"/>
</g>
<path d="M119.101 166.418L113.002 162.879C112.158 162.385 112.266 161.54 113.238 160.977L118.884 157.71C119.383 157.431 119.942 157.274 120.513 157.251C121.085 157.227 121.654 157.339 122.175 157.577L128.299 161.105C129.143 161.599 129.039 162.449 128.062 163.013L122.377 166.279C121.88 166.557 121.324 166.714 120.755 166.738C120.186 166.762 119.62 166.652 119.101 166.418Z" fill="#E9EAF2"/>
<path d="M160.689 190.465L124.909 169.778C124.065 169.284 124.173 168.434 125.146 167.871L130.791 164.609C131.29 164.329 131.848 164.171 132.42 164.147C132.992 164.123 133.561 164.234 134.082 164.471L169.863 185.157C170.706 185.652 170.598 186.502 169.626 187.065L163.981 190.327C163.481 190.605 162.923 190.762 162.351 190.786C161.78 190.81 161.211 190.7 160.689 190.465Z" fill="#E9EAF2"/>
<path d="M106.715 173.578L100.601 170.04C99.7572 169.546 99.8608 168.701 100.838 168.137L106.478 164.871C106.979 164.592 107.538 164.434 108.11 164.411C108.683 164.388 109.253 164.5 109.774 164.737L115.888 168.271C116.732 168.765 116.628 169.615 115.651 170.178L110.011 173.46C109.509 173.736 108.95 173.891 108.377 173.911C107.805 173.932 107.235 173.818 106.715 173.578Z" fill="#E9EAF2"/>
<path d="M148.303 197.626L112.508 176.919C111.664 176.425 111.773 175.575 112.745 175.012L118.39 171.75C118.89 171.47 119.449 171.312 120.022 171.288C120.594 171.264 121.165 171.375 121.686 171.612L157.462 192.298C158.306 192.792 158.202 193.642 157.225 194.206L151.585 197.467C151.088 197.747 150.532 197.906 149.963 197.934C149.393 197.961 148.825 197.856 148.303 197.626Z" fill="#E9EAF2"/>
<g opacity="0.6">
<path opacity="0.6" d="M94.3292 180.739L88.2153 177.201C87.3714 176.707 87.4751 175.862 88.4521 175.298L94.0923 172.032C94.593 171.753 95.1521 171.595 95.7246 171.572C96.2971 171.549 96.8671 171.661 97.3886 171.898L103.503 175.437C104.351 175.931 104.243 176.781 103.266 177.344L97.6255 180.606C97.1247 180.884 96.5656 181.042 95.9932 181.065C95.4207 181.088 94.8508 180.976 94.3292 180.739Z" fill="#E9EAF2"/>
<path opacity="0.6" d="M135.918 204.786L100.142 184.1C99.2983 183.606 99.4019 182.756 100.379 182.192L106.019 178.931C106.52 178.651 107.078 178.493 107.651 178.469C108.223 178.445 108.793 178.556 109.315 178.792L145.076 199.479C145.92 199.973 145.816 200.823 144.839 201.386L139.199 204.648C138.7 204.924 138.144 205.08 137.575 205.104C137.005 205.128 136.438 205.019 135.918 204.786Z" fill="#E9EAF2"/>
</g>
<path d="M81.9484 187.9L75.8295 184.362C74.9857 183.868 75.0942 183.022 76.0664 182.459L81.7115 179.192C82.2113 178.914 82.7696 178.756 83.3413 178.733C83.913 178.71 84.4822 178.821 85.0029 179.059L91.1217 182.593C91.9655 183.087 91.857 183.937 90.8849 184.5L85.2397 187.762C84.7403 188.041 84.1822 188.2 83.6105 188.224C83.0388 188.248 82.4694 188.137 81.9484 187.9Z" fill="#E9EAF2"/>
<path d="M123.537 211.947L87.7564 191.251C86.9125 190.756 87.0162 189.906 87.9932 189.343L93.6334 186.081C94.1339 185.802 94.6927 185.644 95.2652 185.62C95.8376 185.596 96.4077 185.707 96.9297 185.943L132.71 206.63C133.554 207.124 133.445 207.974 132.473 208.537L126.818 211.809C126.32 212.085 125.764 212.242 125.194 212.266C124.624 212.29 124.057 212.181 123.537 211.947Z" fill="#E9EAF2"/>
<g opacity="0.6">
<path opacity="0.6" d="M69.5774 195.061L63.4586 191.523C62.6147 191.028 62.7233 190.183 63.6954 189.62L69.3406 186.353C69.8413 186.074 70.4003 185.917 70.9728 185.894C71.5454 185.871 72.1153 185.982 72.6368 186.22L78.736 189.768C79.5798 190.262 79.4762 191.112 78.4991 191.676L72.854 194.937C72.3552 195.212 71.7992 195.367 71.2303 195.388C70.6614 195.41 70.0954 195.298 69.5774 195.061Z" fill="#E9EAF2"/>
<path opacity="0.6" d="M111.151 219.108L75.3706 198.421C74.5268 197.927 74.6353 197.077 75.6075 196.514L81.2526 193.252C81.752 192.972 82.3101 192.814 82.8818 192.79C83.4535 192.766 84.0229 192.877 84.544 193.114L120.324 213.801C121.168 214.295 121.065 215.145 120.088 215.708L114.442 218.97C113.943 219.248 113.385 219.405 112.813 219.429C112.242 219.453 111.673 219.343 111.151 219.108Z" fill="#E9EAF2"/>
</g>
<g opacity="0.6">
<path opacity="0.6" d="M57.1768 202.222L51.0629 198.664C50.2191 198.169 50.3227 197.324 51.2998 196.761L56.94 193.494C57.4407 193.215 57.9998 193.058 58.5723 193.035C59.1448 193.012 59.7147 193.123 60.2363 193.361L66.3502 196.894C67.194 197.389 67.0904 198.239 66.1133 198.802L60.4731 202.064C59.9743 202.346 59.4162 202.508 58.8438 202.535C58.2713 202.562 57.7004 202.455 57.1768 202.222Z" fill="#E9EAF2"/>
<path opacity="0.6" d="M98.7654 226.269L62.9898 205.582C62.141 205.088 62.2496 204.243 63.2217 203.68L68.8668 200.418C69.3671 200.138 69.926 199.98 70.4985 199.956C71.071 199.932 71.6412 200.043 72.1631 200.28L107.939 220.966C108.783 221.46 108.679 222.31 107.702 222.874L102.062 226.135C101.56 226.413 101.002 226.57 100.429 226.593C99.857 226.616 99.2873 226.505 98.7654 226.269Z" fill="#E9EAF2"/>
</g>
<path d="M35.366 91.4544V115.867C35.3655 116.036 35.3354 116.203 35.2772 116.361C35.2454 116.462 35.2041 116.56 35.1539 116.653C35.0063 116.95 34.7812 117.201 34.5025 117.379L1.68762 136.356C1.5954 136.427 1.48408 136.469 1.36798 136.476C1.25189 136.483 1.13635 136.455 1.03625 136.396C0.979304 136.353 0.93358 136.297 0.90302 136.233C0.847771 136.115 0.820731 135.987 0.824067 135.857V111.444C0.824599 111.276 0.851237 111.11 0.90302 110.95C0.938552 110.845 0.981424 110.743 1.03132 110.644C1.18225 110.348 1.40868 110.097 1.68762 109.917L34.4926 90.9306C34.5863 90.86 34.6991 90.8195 34.8162 90.8142C34.9333 90.8089 35.0493 90.8391 35.1489 90.9009C35.2033 90.9443 35.2486 90.9981 35.2822 91.0591C35.3416 91.1821 35.3704 91.3178 35.366 91.4544Z" fill="#DDB545"/>
<path d="M1.1004 136.416L2.36365 137.112L2.44261 134.869L1.1004 136.416Z" fill="#DDB545"/>
<path d="M35.0601 90.8712L36.422 91.6174L34.5025 93.9203L35.0601 90.8712Z" fill="#DDB545"/>
<path d="M36.6392 92.1561V116.569C36.6361 116.737 36.6061 116.904 36.5503 117.063C36.5164 117.163 36.4752 117.261 36.427 117.355C36.2794 117.651 36.0543 117.902 35.7756 118.081L2.96073 137.048C2.86751 137.118 2.75566 137.158 2.63958 137.163C2.5235 137.168 2.4085 137.139 2.30937 137.078C2.25365 137.036 2.20811 136.982 2.17613 136.92C2.11732 136.803 2.08848 136.674 2.09225 136.544V112.131C2.092 111.963 2.12036 111.796 2.17613 111.637C2.31706 111.22 2.59321 110.861 2.96073 110.619L35.7657 91.6521C35.8587 91.5825 35.9702 91.542 36.0862 91.5359C36.2021 91.5297 36.3173 91.5581 36.4171 91.6175C36.4741 91.6602 36.5198 91.7162 36.5503 91.7805C36.6109 91.8963 36.6414 92.0255 36.6392 92.1561Z" fill="#FFD44D"/>
<path opacity="0.12" d="M2.23536 137.167L19.3632 114.251L36.4615 117.276V119.697L2.09225 139.569L2.23536 137.167Z" fill="black"/>
<path opacity="0.05" d="M19.3632 114.251L2.2699 111.424L0.695774 110.92L0 138.763L2.30938 137.078L19.3632 114.251Z" fill="black"/>
<path opacity="0.05" d="M19.3633 114.251L36.4615 91.6521L38.0357 89.3344L38.7314 116.366L36.4615 117.276L19.3633 114.251Z" fill="black"/>
<path d="M246.062 30.7533V59.3371C246.058 59.5325 246.023 59.726 245.959 59.9104C245.917 60.0266 245.869 60.1405 245.815 60.2514C245.642 60.599 245.378 60.8928 245.051 61.1014L206.625 83.3398C206.515 83.4205 206.384 83.4668 206.248 83.473C206.112 83.4791 205.977 83.4448 205.86 83.3744C205.794 83.3247 205.74 83.2605 205.702 83.1866C205.636 83.0497 205.604 82.8988 205.609 82.7468V54.1383C205.611 53.9496 205.644 53.7626 205.707 53.5848C205.747 53.4625 205.797 53.3435 205.855 53.229C206.029 52.8788 206.295 52.583 206.625 52.374L245.041 30.1455C245.15 30.0628 245.281 30.0149 245.417 30.0078C245.554 30.0008 245.689 30.0349 245.806 30.1059C245.873 30.1542 245.928 30.2188 245.964 30.2937C246.033 30.4367 246.067 30.5944 246.062 30.7533Z" fill="#DDB545"/>
<path d="M205.934 83.3991L207.415 84.2145L207.508 81.5854L205.934 83.3991Z" fill="#DDB545"/>
<path d="M245.702 30.0615L247.301 30.9411L245.051 33.6344L245.702 30.0615Z" fill="#DDB545"/>
<path d="M247.552 31.5737V60.1575C247.548 60.3529 247.513 60.5463 247.449 60.7308C247.407 60.847 247.36 60.9608 247.306 61.0717C247.13 61.4174 246.866 61.7106 246.541 61.9218L208.115 84.1602C208.006 84.2415 207.874 84.2882 207.738 84.2943C207.602 84.3005 207.467 84.2658 207.351 84.1948C207.283 84.1465 207.229 84.0819 207.193 84.007C207.127 83.87 207.094 83.7192 207.099 83.5672V54.9586C207.101 54.77 207.135 54.583 207.198 54.4052C207.235 54.2821 207.285 54.1629 207.346 54.0493C207.519 53.6991 207.785 53.4034 208.115 53.1944L246.531 30.9807C246.641 30.8982 246.773 30.8504 246.91 30.8434C247.047 30.8363 247.183 30.8704 247.301 30.9411C247.367 30.9908 247.421 31.0551 247.459 31.1289C247.524 31.2679 247.556 31.4201 247.552 31.5737Z" fill="#FFD44D"/>
<path opacity="0.12" d="M207.257 84.2738L227.326 57.4395L247.345 60.9828V63.8194L207.099 87.0907L207.257 84.2738Z" fill="black"/>
<path opacity="0.05" d="M227.326 57.4394L207.306 54.1333L205.466 53.5403L204.646 86.1468L207.351 84.175L227.326 57.4394Z" fill="black"/>
<path opacity="0.05" d="M227.326 57.4394L247.345 30.9806L249.186 28.2626L250 59.9202L247.345 60.9827L227.326 57.4394Z" fill="black"/>
<path d="M162.12 22.1297C162.063 21.9889 161.967 21.8672 161.844 21.7789C161.597 21.6497 161.33 21.5613 161.054 21.5169L119.382 9.52301L77.7096 69.7101C77.4181 70.0345 77.1694 70.3949 76.9694 70.7825C76.8421 71.0254 76.7348 71.2783 76.6486 71.5386C76.5205 71.9195 76.4523 72.3179 76.4463 72.7197V133.431C76.4394 133.755 76.5069 134.076 76.6437 134.37C76.7239 134.525 76.8387 134.661 76.9792 134.765C77.2254 134.917 77.5113 134.991 77.7999 134.977C78.0885 134.964 78.3665 134.864 78.5978 134.691L160.171 87.5256C161.075 86.9184 161.754 86.0288 162.101 84.9954C162.24 84.6034 162.313 84.1909 162.318 83.7747V23.0638C162.325 22.7413 162.258 22.4215 162.12 22.1297Z" fill="#DDB545"/>
<path d="M161.73 21.7097L164.292 23.2318L160.714 25.8608L161.73 21.7097Z" fill="#CEB95F"/>
<path d="M79.5995 136.322L76.9792 134.74L81.0207 131.825L79.5995 136.322Z" fill="#DDB545"/>
<path d="M119.382 9.52301L121.884 11.0303L164.292 23.2268L162.184 21.9765C161.37 21.6214 160.529 21.3338 159.668 21.1167L119.382 9.52301Z" fill="#C19B3D"/>
<path d="M164.815 24.571V85.2572C164.808 85.6715 164.735 86.082 164.597 86.4729C164.512 86.7211 164.408 86.9623 164.287 87.1945C163.92 87.9329 163.361 88.558 162.668 89.0032L81.1045 136.168C80.8733 136.344 80.5947 136.445 80.305 136.459C80.0154 136.473 79.7282 136.4 79.4811 136.248C79.3419 136.141 79.2288 136.004 79.1505 135.847C79.0115 135.556 78.9438 135.236 78.9531 134.913V74.222C78.959 73.8202 79.0273 73.4218 79.1554 73.0409C79.2424 72.7809 79.3497 72.5281 79.4761 72.2848C79.845 71.5422 80.4099 70.915 81.1095 70.4712L162.653 23.3158L161.262 24.2745C161.913 23.9038 163.897 22.9352 164.291 23.2317C164.431 23.3382 164.544 23.4751 164.622 23.632C164.76 23.9252 164.826 24.2471 164.815 24.571Z" fill="#FFD44D"/>
<path opacity="0.12" d="M79.4811 136.248L121.884 79.4901L164.39 87.0117V93.0309L78.9482 142.43L79.4811 136.248Z" fill="black"/>
<path opacity="0.05" d="M121.884 79.4902L79.3824 72.4678L75.4792 71.2125L73.7422 140.428L79.4811 136.248L121.884 79.4902Z" fill="black"/>
<path opacity="0.05" d="M121.795 79.411L164.296 23.2417L168.2 17.4745L169.937 84.6791L164.296 86.9326L121.795 79.411Z" fill="black"/>
<path d="M79.4712 72.2849L121.884 11.0303L164.292 23.2318L121.884 79.4901L79.4712 72.2849Z" fill="#FFD44D"/>
<path opacity="0.3" d="M164.292 23.2318L154.694 35.967L121.884 79.4901L89.0788 73.9157L79.4712 72.2849L89.0788 58.4081L112.715 24.2696L121.884 11.0303L131.052 13.6692L154.694 20.4742L164.292 23.2318Z" fill="black"/>
<path d="M154.694 0V35.967L121.884 79.4901L89.0788 73.9157V37.9388L154.694 0Z" fill="#FAFBFF"/>
<path d="M110.899 53.7429L94.7092 63.1028V44.383L110.899 35.0181V53.7429Z" fill="#E9EAF2"/>
<path d="M129.981 42.7077L113.791 52.0725V33.3478L129.981 23.9829V42.7077Z" fill="#E9EAF2"/>
<path d="M149.063 31.6774L132.868 41.0423V22.3175L149.063 12.9526V31.6774Z" fill="#E9EAF2"/>
<path d="M149.063 39.451L94.7092 70.8764V67.6197L149.063 36.1894V39.451Z" fill="#E9EAF2"/>
<path d="M140.966 47.8917V51.1534L98.9726 75.4328L94.7042 74.9979V74.6421L140.966 47.8917Z" fill="#E9EAF2"/>
<path d="M132.868 59.095V62.3566L108.111 76.6683L102.999 76.3668L132.868 59.095Z" fill="#E9EAF2"/>
<path d="M128.61 68.5785V70.5701L126.912 72.8186L116.831 78.65L112.444 77.9285L128.61 68.5785Z" fill="#E9EAF2"/>
<defs>
<linearGradient id="paint0_linear_3378_7106" x1="129.898" y1="233.435" x2="129.898" y2="128.612" gradientUnits="userSpaceOnUse">
<stop offset="0.21" stop-color="white" stop-opacity="0"/>
<stop offset="1" stop-color="white" stop-opacity="0.2"/>
</linearGradient>
</defs>
</svg>
